<svg width="24" height="24" viewBox="0 0 24 24" fill="none" xmlns="http://www.w3.org/2000/svg">
<path fill-rule="evenodd" clip-rule="evenodd" d="M11.6894 15.9577L11.0194 13.8567H8.66342L8.02642 15.9577H6.62943L9.00542 8.54369H10.7324L13.1424 15.9577H11.6894ZM9.45643 11.0077L8.88442 12.8337H10.7874L10.2044 11.0077C10.0905 10.633 9.98717 10.2552 9.89442 9.87469L9.83042 9.62169H9.80842L9.69443 10.0867C9.62043 10.3967 9.54443 10.7187 9.45643 11.0077ZM18.1254 13.0867C18.1254 13.3397 18.1034 13.5377 18.0814 13.6587H14.4954C14.5284 14.6267 15.2874 15.0447 16.1454 15.0447C16.7724 15.0447 17.2234 14.9567 17.6304 14.8027L17.8284 15.7377C17.3664 15.9247 16.7284 16.0787 15.9584 16.0787C14.2204 16.0787 13.1974 15.0007 13.1974 13.3617C13.1974 11.8767 14.0994 10.4797 15.8154 10.4797C17.5644 10.4797 18.1254 11.9097 18.1254 13.0867ZM15.7384 11.4037C14.9024 11.4037 14.5504 12.1627 14.4954 12.7127H16.8494C16.8594 12.2177 16.6394 11.4037 15.7384 11.4037Z" fill="white"/>
<path fill-rule="evenodd" clip-rule="evenodd" d="M17.6994 3.29068C14.2048 2.90311 10.678 2.90311 7.18342 3.29068C5.17142 3.51568 3.54642 5.10068 3.31042 7.12268C2.89653 10.6673 2.89653 14.2481 3.31042 17.7927C3.54642 19.8147 5.17042 21.3997 7.18342 21.6247C10.6781 22.0114 14.2048 22.0114 17.6994 21.6247C19.7114 21.3997 21.3364 19.8147 21.5724 17.7927C21.9863 14.2481 21.9863 10.6673 21.5724 7.12268C21.3364 5.10068 19.7124 3.51568 17.6994 3.29068ZM7.34942 4.78068C10.7337 4.40539 14.1491 4.40539 17.5334 4.78068C18.8634 4.93068 19.9284 5.97968 20.0834 7.29768C20.4846 10.726 20.4846 14.1894 20.0834 17.6177C20.0032 18.2627 19.708 18.8619 19.2453 19.3184C18.7826 19.775 18.1795 20.0622 17.5334 20.1337C14.1491 20.509 10.7337 20.509 7.34942 20.1337C6.70336 20.0622 6.10027 19.775 5.63757 19.3184C5.17488 18.8619 4.87959 18.2627 4.79942 17.6177C4.39828 14.1894 4.39828 10.726 4.79942 7.29768C4.87959 6.65264 5.17488 6.05346 5.63757 5.59693C6.10027 5.14041 6.70336 4.85219 7.34942 4.78068Z" fill="white"/>
</svg>
