<svg width="50" height="50" viewBox="0 0 50 50" fill="none" xmlns="http://www.w3.org/2000/svg">
<g clip-path="url(#clip0_2001_14641)">
<path d="M34.5625 7H15.4375C10.7776 7 7 10.7776 7 15.4375V34.5625C7 39.2224 10.7776 43 15.4375 43H34.5625C39.2224 43 43 39.2224 43 34.5625V15.4375C43 10.7776 39.2224 7 34.5625 7Z" fill="#330000"/>
<path d="M24.399 28.422H18.819L17.679 31.947C17.649 32.082 17.5291 32.172 17.3941 32.157H14.574C14.409 32.157 14.364 32.067 14.409 31.887L19.2391 17.982C19.2841 17.8321 19.3291 17.667 19.389 17.487C19.449 17.172 19.479 16.8421 19.479 16.512C19.4641 16.4371 19.524 16.362 19.5991 16.3471H23.484C23.6041 16.3471 23.664 16.3921 23.679 16.467L29.154 31.9171C29.199 32.082 29.154 32.157 29.0041 32.157H25.869C25.7641 32.172 25.659 32.0971 25.6291 31.992L24.399 28.422ZM19.6891 25.377H23.499C23.409 25.062 23.2891 24.687 23.1541 24.297C23.0191 23.892 22.8841 23.4571 22.7491 23.0071C22.599 22.542 22.464 22.092 22.314 21.627C22.1641 21.1621 22.0291 20.727 21.909 20.292C21.789 19.8721 21.684 19.482 21.5791 19.122H21.549C21.414 19.7671 21.249 20.4121 21.0391 21.057C20.8141 21.777 20.5891 22.527 20.349 23.2771C20.1553 23.985 19.9351 24.6855 19.6891 25.377ZM32.499 18.972C32.004 18.987 31.5241 18.792 31.1641 18.447C30.8191 18.072 30.6391 17.577 30.654 17.0671C30.6391 16.557 30.834 16.0771 31.194 15.732C31.554 15.387 32.0341 15.207 32.5291 15.207C33.1141 15.207 33.5641 15.387 33.894 15.732C34.2264 16.0957 34.404 16.5746 34.389 17.0671C34.4041 17.577 34.2241 18.072 33.8641 18.447C33.5191 18.807 33.0091 19.0021 32.499 18.972ZM30.8191 31.992V20.4421C30.8191 20.292 30.879 20.232 31.014 20.232H33.984C34.119 20.232 34.1791 20.3071 34.1791 20.4421V31.992C34.1791 32.157 34.119 32.2321 33.984 32.2321H31.0441C30.8941 32.2321 30.8191 32.1421 30.8191 31.992Z" fill="#FF9A00"/>
</g>
<defs>
<clipPath id="clip0_2001_14641">
<rect width="36" height="36" fill="white" transform="translate(7 7)"/>
</clipPath>
</defs>
</svg>
