<svg width="50" height="50" viewBox="0 0 50 50" fill="none" xmlns="http://www.w3.org/2000/svg">
<g clip-path="url(#clip0_2179_15077)">
<path d="M44.1017 0H5.89829C2.64075 0 0 2.64097 0 5.89876V44.1012C0 47.359 2.64075 50 5.89829 50H44.1017C47.3592 50 50 47.359 50 44.1012V5.89876C50 2.64097 47.3592 0 44.1017 0Z" fill="url(#paint0_linear_2179_15077)"/>
<path d="M21.7179 23.9412C21.7179 23.9412 24.9352 23.7191 24.9352 20.215C24.9352 16.7108 22.3031 15 18.9694 15H8V34.5846H18.9694C18.9694 34.5846 25.6644 34.781 25.6644 28.8031C25.6644 28.8031 25.9586 23.9412 21.7179 23.9412ZM12.8321 18.4814H18.9602C18.9602 18.4814 20.4524 18.4814 20.4524 20.5196C20.4524 22.5577 19.5761 22.8538 18.5803 22.8538H12.8351L12.8321 18.4814ZM18.6845 31.1032H12.8351V25.8712H18.9633C18.9633 25.8712 21.1848 25.8427 21.1848 28.5612C21.1909 30.8242 19.5669 31.0804 18.6875 31.1032H18.6845ZM34.5962 19.9844C26.4887 19.9844 26.4979 27.5079 26.4979 27.5079C26.4979 27.5079 25.9402 34.9945 34.5962 34.9945C34.5962 34.9945 41.8091 35.3759 41.8091 29.7881H38.1016C38.1016 29.7881 38.2241 31.8946 34.7311 31.8946C34.7311 31.8946 31.0205 32.1251 31.0205 28.4786H41.9439C41.9439 28.4786 43.1297 19.9844 34.5962 19.9844ZM37.8932 25.8712H30.9684C30.9684 25.8712 31.4219 22.8538 34.679 22.8538C37.9361 22.8538 37.8932 25.8712 37.8932 25.8712ZM30.0614 16.1557H38.7573V18.5668H30.0614V16.1557Z" fill="white"/>
</g>
<defs>
<linearGradient id="paint0_linear_2179_15077" x1="25" y1="0" x2="25" y2="50.004" gradientUnits="userSpaceOnUse">
<stop stop-color="#005CFF"/>
<stop offset="1" stop-color="#0047AD"/>
</linearGradient>
<clipPath id="clip0_2179_15077">
<rect width="50" height="50" fill="white"/>
</clipPath>
</defs>
</svg>
