<svg width="96" height="98" viewBox="0 0 96 98" fill="none" xmlns="http://www.w3.org/2000/svg">
<g filter="url(#filter0_b_1258_13849)">
<path d="M33.3614 28C35.3808 28 37.2485 28.1571 38.955 28.6223C40.6647 28.9334 42.0647 29.5557 43.3067 30.332C44.5518 31.1114 45.4841 32.1988 46.1035 33.5974C46.7261 34.996 47.0389 36.7088 47.0389 38.5725C47.0389 40.7505 46.5712 42.6143 45.4841 44.0128C44.5518 45.4145 42.997 46.656 41.1324 47.5894C43.7744 48.3688 45.7938 49.7674 47.0389 51.6342C48.2809 53.4979 49.0583 55.8299 49.0583 58.4731C49.0583 60.6511 48.5906 62.5148 47.8132 64.0705C47.0389 65.6262 45.7938 67.0248 44.3938 67.9582C42.873 68.9586 41.1919 69.6941 39.4228 70.1331C37.5582 70.6013 35.6937 70.9125 33.8291 70.9125H13V28H33.3614ZM32.1163 45.4114C33.826 45.4114 35.226 44.9463 36.3131 44.17C37.4002 43.3937 37.8679 41.992 37.8679 40.2823C37.8679 39.3488 37.7099 38.4186 37.4002 37.7963C37.0905 37.174 36.6228 36.7057 36.0034 36.2406C35.3808 35.9294 34.7582 35.6183 33.9808 35.4643C33.2034 35.3071 32.4291 35.3071 31.4937 35.3071H22.4807V45.4145H32.1194L32.1163 45.4114ZM32.584 63.7594C33.5163 63.7594 34.4485 63.6022 35.226 63.4482C36.0034 63.2911 36.7808 62.9831 37.4002 62.5148C38.0335 62.0598 38.5633 61.4772 38.955 60.8051C39.2647 60.0288 39.5776 59.0954 39.5776 58.0079C39.5776 55.8299 38.955 54.2742 37.7131 53.1868C36.4679 52.2534 34.7582 51.7882 32.7389 51.7882H22.4807V63.7625L32.584 63.7594ZM62.581 63.6022C63.823 64.8468 65.6875 65.4691 68.1746 65.4691C69.8843 65.4691 71.4391 65.0039 72.6811 64.2276C73.9262 63.2942 74.7037 62.3608 75.0134 61.4305H82.6295C81.3844 65.1579 79.5199 67.8011 77.0359 69.5139C74.5457 71.0665 71.594 71.9999 68.0198 71.9999C65.7329 72.007 63.4652 71.5847 61.3359 70.7553C59.4197 70.0407 57.7109 68.8661 56.3616 67.3359C54.9184 65.9046 53.8515 64.142 53.2551 62.2036C52.4777 60.1828 52.1648 58.0079 52.1648 55.5188C52.1648 53.1868 52.4777 51.012 53.2551 48.988C54.0039 47.0405 55.1109 45.2489 56.5196 43.7048C57.9389 42.2555 59.627 41.0932 61.4907 40.2823C63.566 39.4527 65.7831 39.0301 68.0198 39.0377C70.6617 39.0377 72.994 39.506 75.0134 40.5934C77.0359 41.6808 78.5876 42.9254 79.8296 44.7923C81.0747 46.502 82.0101 48.5228 82.6295 50.7008C82.9393 52.8757 83.0941 55.0537 82.9392 57.5397H60.4036C60.4036 60.0288 61.3359 62.3608 62.581 63.6054V63.6022ZM72.3714 47.2782C71.2843 46.1908 69.5746 45.5685 67.552 45.5685C66.1552 45.5685 65.0649 45.8828 64.1327 46.348C63.2004 46.8131 62.581 47.4354 61.9584 48.0577C61.3853 48.6585 61.0057 49.4158 60.8681 50.2325C60.7133 51.012 60.5584 51.6342 60.5584 52.2534H74.5457C74.236 49.9214 73.4585 48.3688 72.3714 47.2782ZM58.6939 30.9543H76.1005V35.1531H58.6971V30.9543H58.6939Z" fill="white"/>
</g>
<defs>
<filter id="filter0_b_1258_13849" x="-20" y="-20" width="136" height="138" filterUnits="userSpaceOnUse" color-interpolation-filters="sRGB">
<feFlood flood-opacity="0" result="BackgroundImageFix"/>
<feGaussianBlur in="BackgroundImageFix" stdDeviation="10"/>
<feComposite in2="SourceAlpha" operator="in" result="effect1_backgroundBlur_1258_13849"/>
<feBlend mode="normal" in="SourceGraphic" in2="effect1_backgroundBlur_1258_13849" result="shape"/>
</filter>
</defs>
</svg>
