<svg width="50" height="50" viewBox="0 0 50 50" fill="none" xmlns="http://www.w3.org/2000/svg">
<g clip-path="url(#clip0_2001_14621)">
<path d="M20.5143 26.6146C20.6489 24.2195 21.8241 22.1095 23.5972 20.6137C25.3359 19.1446 27.6762 18.2466 30.2297 18.2466C32.7807 18.2466 35.1211 19.1446 36.8611 20.6137C38.6328 22.1094 39.8081 24.2195 39.944 26.612C40.0784 29.0728 39.0872 31.3589 37.3485 33.0535C35.5755 34.7772 33.0536 35.8587 30.2297 35.8587C27.4059 35.8587 24.879 34.7772 23.1072 33.0535C21.3672 31.3587 20.3785 29.0727 20.5143 26.6146Z" fill="white"/>
<path d="M25.2466 26.8283C25.3155 25.5994 25.9187 24.5167 26.8283 23.7492C27.7205 22.9955 28.9213 22.5347 30.2316 22.5347C31.5405 22.5347 32.7414 22.9955 33.6342 23.7492C34.5433 24.5167 35.1463 25.5994 35.2159 26.8271C35.285 28.0897 34.7765 29.2627 33.8842 30.1322C32.9745 31.0166 31.6805 31.5716 30.2316 31.5716C28.7827 31.5716 27.4861 31.0166 26.577 30.1322C25.6842 29.2627 25.1769 28.0897 25.2466 26.8283Z" fill="#265787"/>
<path d="M17.3328 29.3529C17.3415 29.8346 17.4954 30.7713 17.7265 31.5025C18.212 33.0505 19.0355 34.4827 20.1815 35.7448C21.3576 37.0421 22.8056 38.0842 24.4784 38.8239C26.2365 39.6009 28.1414 39.9968 30.1201 39.9937C32.0955 39.9909 34.0006 39.5872 35.7587 38.8043C37.4313 38.0574 38.8781 37.0108 40.0523 35.7129C41.1975 34.4455 42.0198 33.0109 42.5067 31.4628C42.7514 30.6807 42.906 29.8868 42.968 29.0902C43.0287 28.3044 43.0031 27.5144 42.8917 26.7341C42.6738 25.2037 42.1431 23.7677 41.326 22.4587C40.5788 21.2558 39.6156 20.2027 38.4702 19.3163L38.4728 19.3144L26.9147 10.4579C26.9041 10.4501 26.8956 10.4418 26.8845 10.4346C26.1262 9.85361 24.8509 9.85563 24.017 10.4377C23.1738 11.0265 23.0772 12.0002 23.8276 12.6142L23.8244 12.6175L28.6453 16.5296L13.9518 16.5452H13.9321C12.7177 16.5466 11.5503 17.3418 11.319 18.3466C11.0816 19.3704 11.9065 20.2196 13.1693 20.2242L13.1673 20.2287L20.615 20.2143L7.32505 30.3942C7.30814 30.4066 7.28978 30.4196 7.27417 30.432C6.02051 31.39 5.61524 32.983 6.40482 33.9911C7.20624 35.0163 8.91027 35.0181 10.1769 33.997L17.4301 28.0733C17.4301 28.0733 17.3243 28.8729 17.3328 29.3529ZM35.9709 32.0307C34.4764 33.5501 32.384 34.4116 30.1202 34.4163C27.853 34.4201 25.7607 33.5663 24.2663 32.0496C23.536 31.3104 22.9996 30.4599 22.6686 29.5539C22.3433 28.6624 22.2181 27.7105 22.302 26.7654C22.3809 25.8334 22.6589 24.9445 23.1027 24.1401C23.5386 23.3496 24.1389 22.6351 24.8804 22.0307C26.3329 20.8495 28.1825 20.2098 30.1168 20.2072C32.0532 20.2046 33.9013 20.8384 35.3554 22.0159C36.0954 22.6175 36.6952 23.3294 37.1311 24.1188C37.5807 24.9274 37.8547 25.8214 37.9352 26.7426C38.0177 27.6871 37.8921 28.6382 37.5671 29.5291C37.2355 30.4378 36.701 31.2883 35.9709 32.0307Z" fill="#EA7600"/>
</g>
<defs>
<clipPath id="clip0_2001_14621">
<rect width="37" height="30" fill="white" transform="translate(6 10)"/>
</clipPath>
</defs>
</svg>
