<svg width="24" height="24" viewBox="0 0 24 24" fill="none" xmlns="http://www.w3.org/2000/svg">
<path d="M12.8767 4.17384C12.7962 4.10873 12.7038 4.06028 12.6048 4.03129C12.5058 4.0023 12.402 3.99333 12.2995 4.0049C12.197 4.01647 12.0978 4.04836 12.0076 4.09872C11.9173 4.14908 11.8378 4.21693 11.7737 4.29836C11.7095 4.3798 11.662 4.47322 11.6338 4.57324C11.6055 4.67327 11.5972 4.77794 11.6092 4.88124C11.6212 4.98453 11.6533 5.08442 11.7037 5.17515C11.7541 5.26588 11.8218 5.34568 11.9029 5.40994L14.5791 7.55458H6.12781C5.92021 7.55458 5.72111 7.63774 5.57432 7.78577C5.42753 7.9338 5.34506 8.13457 5.34506 8.34392C5.34506 8.55326 5.42753 8.75403 5.57432 8.90206C5.72111 9.05009 5.92021 9.13326 6.12781 9.13326H10.411L3.2927 14.8299C3.13137 14.9605 3.02788 15.1503 3.00486 15.3576C2.98184 15.5649 3.04116 15.773 3.16985 15.9364C3.29854 16.0998 3.48613 16.2051 3.69162 16.2294C3.8971 16.2537 4.10377 16.1949 4.26643 16.066L8.51127 12.6695C8.48779 12.8689 8.47605 13.0715 8.47605 13.2773C8.47605 16.5199 11.3652 19 14.738 19C18.1109 19 21 16.5199 21 13.2773C21 11.5036 20.1202 9.94075 18.7809 8.90514L12.8767 4.17384ZM11.6579 10.1515C12.4759 9.52161 13.5506 9.13326 14.738 9.13326C15.9278 9.13326 17.0041 9.52319 17.8236 10.1555C18.8287 10.929 19.4345 12.0522 19.4345 13.2773C19.4345 15.4843 17.4174 17.4213 14.738 17.4213C12.0587 17.4213 10.0415 15.4843 10.0415 13.2773C10.0415 12.1091 10.5926 11.034 11.5147 10.2652L11.6579 10.1515ZM13.9381 13.548C13.7212 13.3428 13.6257 13.1013 13.6398 12.8518C13.6649 12.4059 14.1283 11.8967 14.8124 11.8967C15.4957 11.8967 15.9591 12.4051 15.9849 12.851C15.999 13.1115 15.9004 13.3507 15.6891 13.5512C15.466 13.7643 15.1435 13.8985 14.8124 13.8985C14.4878 13.8959 14.1759 13.7709 13.9381 13.548ZM14.8124 10.3173C13.4457 10.3173 12.1557 11.3395 12.0767 12.7642C11.9921 14.2995 13.3486 15.4764 14.8124 15.4764C16.2808 15.4764 17.6318 14.3105 17.5481 12.7626C17.4682 11.3387 16.1783 10.3173 14.8124 10.3173Z" fill="white"/>
</svg>
