<svg width="50" height="50" viewBox="0 0 50 50" fill="none" xmlns="http://www.w3.org/2000/svg">
<g clip-path="url(#clip0_2001_14660)">
<path d="M34.5625 7H15.4375C10.7776 7 7 10.7776 7 15.4375V34.5625C7 39.2224 10.7776 43 15.4375 43H34.5625C39.2224 43 43 39.2224 43 34.5625V15.4375C43 10.7776 39.2224 7 34.5625 7Z" fill="#0277BD"/>
<path d="M14.559 21.4353L14.9615 25.9271H25.0135V21.4353H14.559ZM25.0134 12.3438H13.75L14.1584 16.8356H25.0134V12.3438ZM25.0134 37.7745V33.1011L24.9937 33.1063L19.9911 31.7556L19.6713 28.1731H15.1622L15.7915 35.226L24.9927 37.7803L25.0134 37.7745Z" fill="#EBEBEB"/>
<path d="M30.5292 25.9271L30.0078 31.7527L24.998 33.1049V37.778L34.2066 35.226L34.2741 34.467L35.3296 22.6416L35.4392 21.4353L36.2502 12.3438H24.998V16.8356H31.3274L30.9188 21.4353H24.998V25.9271H30.5292Z" fill="white"/>
</g>
<defs>
<clipPath id="clip0_2001_14660">
<rect width="36" height="36" fill="white" transform="translate(7 7)"/>
</clipPath>
</defs>
</svg>
