<svg width="50" height="50" viewBox="0 0 50 50" fill="none" xmlns="http://www.w3.org/2000/svg">
<g clip-path="url(#clip0_2001_14614)">
<g filter="url(#filter0_d_2001_14614)">
<path d="M19.75 41.9998C22.924 41.9998 25.5 39.4612 25.5 36.3332V30.6665H19.75C16.576 30.6665 14 33.2052 14 36.3332C14 39.4612 16.576 41.9998 19.75 41.9998Z" fill="#0ACF83"/>
</g>
<g filter="url(#filter1_d_2001_14614)">
<path d="M14 25.0002C14 21.8722 16.576 19.3335 19.75 19.3335H25.5V30.6668H19.75C16.576 30.6668 14 28.1282 14 25.0002Z" fill="#A259FF"/>
</g>
<g filter="url(#filter2_d_2001_14614)">
<path d="M14 13.6667C14 10.5387 16.576 8 19.75 8H25.5V19.3333H19.75C16.576 19.3333 14 16.7947 14 13.6667Z" fill="#F24E1E"/>
</g>
<g filter="url(#filter3_d_2001_14614)">
<path d="M25.5 8H31.25C34.424 8 37 10.5387 37 13.6667C37 16.7947 34.424 19.3333 31.25 19.3333H25.5V8Z" fill="#FF7262"/>
</g>
<g filter="url(#filter4_d_2001_14614)">
<path d="M37 25.0002C37 28.1282 34.424 30.6668 31.25 30.6668C28.076 30.6668 25.5 28.1282 25.5 25.0002C25.5 21.8722 28.076 19.3335 31.25 19.3335C34.424 19.3335 37 21.8722 37 25.0002Z" fill="#1ABCFE"/>
</g>
</g>
<defs>
<filter id="filter0_d_2001_14614" x="12" y="28.6665" width="15.5" height="15.3335" filterUnits="userSpaceOnUse" color-interpolation-filters="sRGB">
<feFlood flood-opacity="0" result="BackgroundImageFix"/>
<feColorMatrix in="SourceAlpha" type="matrix" values="0 0 0 0 0 0 0 0 0 0 0 0 0 0 0 0 0 0 127 0" result="hardAlpha"/>
<feOffset/>
<feGaussianBlur stdDeviation="1"/>
<feComposite in2="hardAlpha" operator="out"/>
<feColorMatrix type="matrix" values="0 0 0 0 0 0 0 0 0 0 0 0 0 0 0 0 0 0 0.25 0"/>
<feBlend mode="normal" in2="BackgroundImageFix" result="effect1_dropShadow_2001_14614"/>
<feBlend mode="normal" in="SourceGraphic" in2="effect1_dropShadow_2001_14614" result="shape"/>
</filter>
<filter id="filter1_d_2001_14614" x="12" y="17.3335" width="15.5" height="15.3335" filterUnits="userSpaceOnUse" color-interpolation-filters="sRGB">
<feFlood flood-opacity="0" result="BackgroundImageFix"/>
<feColorMatrix in="SourceAlpha" type="matrix" values="0 0 0 0 0 0 0 0 0 0 0 0 0 0 0 0 0 0 127 0" result="hardAlpha"/>
<feOffset/>
<feGaussianBlur stdDeviation="1"/>
<feComposite in2="hardAlpha" operator="out"/>
<feColorMatrix type="matrix" values="0 0 0 0 0 0 0 0 0 0 0 0 0 0 0 0 0 0 0.25 0"/>
<feBlend mode="normal" in2="BackgroundImageFix" result="effect1_dropShadow_2001_14614"/>
<feBlend mode="normal" in="SourceGraphic" in2="effect1_dropShadow_2001_14614" result="shape"/>
</filter>
<filter id="filter2_d_2001_14614" x="12" y="6" width="15.5" height="15.3335" filterUnits="userSpaceOnUse" color-interpolation-filters="sRGB">
<feFlood flood-opacity="0" result="BackgroundImageFix"/>
<feColorMatrix in="SourceAlpha" type="matrix" values="0 0 0 0 0 0 0 0 0 0 0 0 0 0 0 0 0 0 127 0" result="hardAlpha"/>
<feOffset/>
<feGaussianBlur stdDeviation="1"/>
<feComposite in2="hardAlpha" operator="out"/>
<feColorMatrix type="matrix" values="0 0 0 0 0 0 0 0 0 0 0 0 0 0 0 0 0 0 0.25 0"/>
<feBlend mode="normal" in2="BackgroundImageFix" result="effect1_dropShadow_2001_14614"/>
<feBlend mode="normal" in="SourceGraphic" in2="effect1_dropShadow_2001_14614" result="shape"/>
</filter>
<filter id="filter3_d_2001_14614" x="23.5" y="6" width="15.5" height="15.3335" filterUnits="userSpaceOnUse" color-interpolation-filters="sRGB">
<feFlood flood-opacity="0" result="BackgroundImageFix"/>
<feColorMatrix in="SourceAlpha" type="matrix" values="0 0 0 0 0 0 0 0 0 0 0 0 0 0 0 0 0 0 127 0" result="hardAlpha"/>
<feOffset/>
<feGaussianBlur stdDeviation="1"/>
<feComposite in2="hardAlpha" operator="out"/>
<feColorMatrix type="matrix" values="0 0 0 0 0 0 0 0 0 0 0 0 0 0 0 0 0 0 0.25 0"/>
<feBlend mode="normal" in2="BackgroundImageFix" result="effect1_dropShadow_2001_14614"/>
<feBlend mode="normal" in="SourceGraphic" in2="effect1_dropShadow_2001_14614" result="shape"/>
</filter>
<filter id="filter4_d_2001_14614" x="23.5" y="17.3335" width="15.5" height="15.3335" filterUnits="userSpaceOnUse" color-interpolation-filters="sRGB">
<feFlood flood-opacity="0" result="BackgroundImageFix"/>
<feColorMatrix in="SourceAlpha" type="matrix" values="0 0 0 0 0 0 0 0 0 0 0 0 0 0 0 0 0 0 127 0" result="hardAlpha"/>
<feOffset/>
<feGaussianBlur stdDeviation="1"/>
<feComposite in2="hardAlpha" operator="out"/>
<feColorMatrix type="matrix" values="0 0 0 0 0 0 0 0 0 0 0 0 0 0 0 0 0 0 0.25 0"/>
<feBlend mode="normal" in2="BackgroundImageFix" result="effect1_dropShadow_2001_14614"/>
<feBlend mode="normal" in="SourceGraphic" in2="effect1_dropShadow_2001_14614" result="shape"/>
</filter>
<clipPath id="clip0_2001_14614">
<rect width="23" height="34" fill="white" transform="translate(14 8)"/>
</clipPath>
</defs>
</svg>
