<svg width="24" height="24" viewBox="0 0 24 24" fill="none" xmlns="http://www.w3.org/2000/svg">
<path d="M14.5 14.5C15.8807 14.5 17 13.3807 17 12C17 10.6193 15.8807 9.5 14.5 9.5C13.1193 9.5 12 10.6193 12 12C12 13.3807 13.1193 14.5 14.5 14.5Z" stroke="white" stroke-width="1.5" stroke-linecap="round" stroke-linejoin="round"/>
<path d="M12 14.5V17C12 17.663 11.7366 18.2989 11.2678 18.7678C10.7989 19.2366 10.163 19.5 9.5 19.5C8.83696 19.5 8.20107 19.2366 7.73223 18.7678C7.26339 18.2989 7 17.663 7 17C7 16.337 7.26339 15.7011 7.73223 15.2322C8.20107 14.7634 8.83696 14.5 9.5 14.5M12 14.5H9.5M12 14.5V9.5M9.5 14.5C8.83696 14.5 8.20107 14.2366 7.73223 13.7678C7.26339 13.2989 7 12.663 7 12C7 11.337 7.26339 10.7011 7.73223 10.2322C8.20107 9.76339 8.83696 9.5 9.5 9.5M12 9.5H9.5M12 9.5V4.5M12 9.5H14.5C15.163 9.5 15.7989 9.23661 16.2678 8.76777C16.7366 8.29893 17 7.66304 17 7C17 6.33696 16.7366 5.70107 16.2678 5.23223C15.7989 4.76339 15.163 4.5 14.5 4.5H12M9.5 9.5C8.83696 9.5 8.20107 9.23661 7.73223 8.76777C7.26339 8.29893 7 7.66304 7 7C7 6.33696 7.26339 5.70107 7.73223 5.23223C8.20107 4.76339 8.83696 4.5 9.5 4.5H12" stroke="white" stroke-width="1.5" stroke-linecap="round" stroke-linejoin="round"/>
</svg>
