<svg width="50" height="50" viewBox="0 0 50 50" fill="none" xmlns="http://www.w3.org/2000/svg">
<path d="M38.4707 37.4355C38.3738 37.7313 38.1426 38.0594 37.7635 38.1699C37.4898 38.2498 28.4339 40.8729 28.1551 40.946C27.3578 41.1585 26.8036 41.0021 26.4398 40.6808C25.8856 40.1929 19.4817 35.8358 11.4033 35.4244C10.5397 35.3819 10.963 32.1077 13.4314 32.1077C15.1229 32.1077 20.0682 33.3368 20.6649 32.7384C21.1256 32.276 21.3347 29.5441 19.412 24.7773L15.5445 15.1944C15.3888 14.762 15.4067 14.2861 15.5945 13.8666C15.7823 13.4471 16.1254 13.1167 16.5516 12.9449C16.9779 12.773 17.4542 12.773 17.8804 12.9449C18.3066 13.1168 18.6497 13.4472 18.8374 13.8667L22.2136 22.229C22.5417 23.045 22.9463 23.3544 23.3866 23.1844C23.7793 23.0348 23.8609 22.773 23.6229 21.9791L20.1447 11.7315C20.0696 11.5109 20.0387 11.2777 20.0537 11.0452C20.0688 10.8127 20.1295 10.5854 20.2324 10.3764C20.3354 10.1673 20.4785 9.98064 20.6536 9.82695C20.8288 9.67327 21.0325 9.55561 21.2531 9.48071C21.4738 9.40508 21.7072 9.37376 21.94 9.38857C22.1728 9.40338 22.4004 9.46402 22.6096 9.567C22.8189 9.66999 23.0058 9.8133 23.1596 9.9887C23.3133 10.1641 23.4309 10.3681 23.5056 10.5891L26.8138 20.3335C27.1062 21.1903 27.4156 21.6391 27.9052 21.4317C28.1993 21.3076 28.1789 20.8571 28.1007 20.4644L25.7785 11.1637C25.7147 10.935 25.6973 10.6959 25.7275 10.4604C25.7576 10.2249 25.8347 9.9978 25.9541 9.79258C26.0735 9.58737 26.2328 9.40817 26.4227 9.26557C26.6125 9.12298 26.829 9.01988 27.0593 8.96238C27.2897 8.90487 27.5292 8.89413 27.7638 8.93078C27.9984 8.96742 28.2233 9.05072 28.4251 9.17575C28.6269 9.30077 28.8017 9.46499 28.939 9.65869C29.0763 9.8524 29.1733 10.0717 29.2244 10.3035L31.3664 18.8749C31.6792 20.1346 31.9665 20.5885 32.4646 20.4644C32.9729 20.3403 32.9491 19.9221 32.8794 19.577L31.397 12.2194C31.3365 11.8101 31.4353 11.3931 31.6732 11.0546C31.9111 10.716 32.2699 10.4817 32.6755 10.3999C33.0811 10.3181 33.5026 10.3951 33.8531 10.6151C34.2036 10.835 34.4563 11.1811 34.559 11.5819L36.1706 19.5906L36.1723 19.5923V19.594L37.1379 24.3965C37.3487 25.3026 37.5901 26.156 37.9029 26.9924C39.7474 31.9037 38.7852 36.4512 38.4707 37.4355Z" fill="#FFC700"/>
</svg>
