<svg width="100" height="100" viewBox="0 0 100 100" fill="none" xmlns="http://www.w3.org/2000/svg">
<g clip-path="url(#clip0_2018_14841)">
<rect width="100" height="100" rx="50" fill="#2F89BC"/>
<path d="M72.2331 140L27 74.8663L54.2638 24L128 69.9037L72.2331 140Z" fill="black" fill-opacity="0.16"/>
<path d="M70.1429 112L20 42.0476L50.9524 21L137 76.7143L70.1429 112Z" fill="black" fill-opacity="0.16"/>
<g clip-path="url(#clip1_2018_14841)">
<g filter="url(#filter0_d_2018_14841)">
<path d="M51 20.6L43 25.8V19H35V31L19 41.4L21.4 44.6L51 25.4L80.6 44.6L83 41.4L51 20.6Z" fill="white"/>
</g>
<g filter="url(#filter1_d_2018_14841)">
<path d="M51 31L27 47V75H47V63H55V75H75V47L51 31Z" fill="white"/>
</g>
</g>
</g>
<defs>
<filter id="filter0_d_2018_14841" x="15" y="19" width="72" height="33.6001" filterUnits="userSpaceOnUse" color-interpolation-filters="sRGB">
<feFlood flood-opacity="0" result="BackgroundImageFix"/>
<feColorMatrix in="SourceAlpha" type="matrix" values="0 0 0 0 0 0 0 0 0 0 0 0 0 0 0 0 0 0 127 0" result="hardAlpha"/>
<feOffset dy="4"/>
<feGaussianBlur stdDeviation="2"/>
<feComposite in2="hardAlpha" operator="out"/>
<feColorMatrix type="matrix" values="0 0 0 0 0 0 0 0 0 0 0 0 0 0 0 0 0 0 0.25 0"/>
<feBlend mode="normal" in2="BackgroundImageFix" result="effect1_dropShadow_2018_14841"/>
<feBlend mode="normal" in="SourceGraphic" in2="effect1_dropShadow_2018_14841" result="shape"/>
</filter>
<filter id="filter1_d_2018_14841" x="23" y="31" width="56" height="52" filterUnits="userSpaceOnUse" color-interpolation-filters="sRGB">
<feFlood flood-opacity="0" result="BackgroundImageFix"/>
<feColorMatrix in="SourceAlpha" type="matrix" values="0 0 0 0 0 0 0 0 0 0 0 0 0 0 0 0 0 0 127 0" result="hardAlpha"/>
<feOffset dy="4"/>
<feGaussianBlur stdDeviation="2"/>
<feComposite in2="hardAlpha" operator="out"/>
<feColorMatrix type="matrix" values="0 0 0 0 0 0 0 0 0 0 0 0 0 0 0 0 0 0 0.25 0"/>
<feBlend mode="normal" in2="BackgroundImageFix" result="effect1_dropShadow_2018_14841"/>
<feBlend mode="normal" in="SourceGraphic" in2="effect1_dropShadow_2018_14841" result="shape"/>
</filter>
<clipPath id="clip0_2018_14841">
<rect width="100" height="100" rx="50" fill="white"/>
</clipPath>
<clipPath id="clip1_2018_14841">
<rect width="64" height="64" fill="white" transform="translate(19 15)"/>
</clipPath>
</defs>
</svg>
