<svg width="50" height="50" viewBox="0 0 50 50" fill="none" xmlns="http://www.w3.org/2000/svg">
<g clip-path="url(#clip0_2001_14650)">
<path d="M34.5625 7H15.4375C10.7776 7 7 10.7776 7 15.4375V34.5625C7 39.2224 10.7776 43 15.4375 43H34.5625C39.2224 43 43 39.2224 43 34.5625V15.4375C43 10.7776 39.2224 7 34.5625 7Z" fill="#E14E1D"/>
<path d="M13.75 12.3438L14.9608 25.9271H30.5294L30.007 31.7532L24.9942 33.1086L19.9909 31.7552L19.6564 28.0143H15.1478L15.7926 35.2257L24.9933 37.7811L34.2056 35.2257L35.4407 21.4359H19.069L18.658 16.836H35.8477L36.25 12.3438H13.75Z" fill="white"/>
<path d="M25 12.3438H13.75L14.9608 25.9271H25V21.4359H19.069L18.658 16.836H25V12.3438ZM25 33.1066L24.9942 33.1086L19.9909 31.7552L19.6564 28.0143H15.1478L15.7926 35.2257L24.9933 37.7811L25.0001 37.7792L25 33.1066Z" fill="#EBEBEB"/>
</g>
<defs>
<clipPath id="clip0_2001_14650">
<rect width="36" height="36" fill="white" transform="translate(7 7)"/>
</clipPath>
</defs>
</svg>
