<svg width="24" height="24" viewBox="0 0 24 24" fill="none" xmlns="http://www.w3.org/2000/svg">
<path d="M4 11.5C4 7.49337 4 5.48916 5.24458 4.24458C6.48916 3 8.49247 3 12.5 3C16.5066 3 18.5108 3 19.7554 4.24458C21 5.48916 21 7.49247 21 11.5C21 15.5066 21 17.5108 19.7554 18.7554C18.5108 20 16.5075 20 12.5 20C8.49337 20 6.48916 20 5.24458 18.7554C4 17.5108 4 15.5075 4 11.5Z" stroke="white" stroke-width="1.5" stroke-linecap="round" stroke-linejoin="round"/>
<path d="M13.3947 15.0789L12.6199 12.5737M12.6199 12.5737L11.9721 10.4791C11.4442 8.77374 11.1803 7.92105 10.7105 7.92105C10.2408 7.92105 9.97685 8.77374 9.44895 10.4791L8.80116 12.5737M12.6199 12.5737H8.80116M8.02632 15.0789L8.80116 12.5737M16.079 15.0789V10.6053M16.079 8.36842V7.92105" stroke="white" stroke-width="1.5" stroke-linecap="round" stroke-linejoin="round"/>
</svg>
