<svg width="100" height="100" viewBox="0 0 100 100" fill="none" xmlns="http://www.w3.org/2000/svg">
<g clip-path="url(#clip0_2018_14854)">
<rect width="100" height="100" rx="50" fill="#2F89BC"/>
<path d="M67 125L30.5 72.5L52.5 31.5L112 68.5L67 125Z" fill="black" fill-opacity="0.16"/>
<path d="M65.5 102.5L25 46L50 29L119.5 74L65.5 102.5Z" fill="black" fill-opacity="0.16"/>
<g filter="url(#filter0_d_2018_14854)">
<path d="M83.4777 35.0389C82.0527 31.6718 78.9771 27.3037 75.8022 25.3617C68.4183 20.8213 59.0327 19.9464 50.6612 21.5504C37.5107 24.0692 25.1888 32.5732 19.0179 44.5571C14.6498 53.0413 13.7484 65.973 19.568 74.1125C23.366 79.4218 30.9023 81.4301 36.881 78.9379C40.9442 77.2477 43.4629 73.4829 46.9759 71.0171C51.5361 67.8091 56.4808 68.7171 61.7702 68.5117C76.9555 67.935 89.3703 49.0312 83.4777 35.0389M61.1471 56.9387C59.9408 57.4027 58.3566 57.6744 57.0575 57.4822C55.7451 57.2767 54.3531 56.3157 53.6572 55.1756C51.2379 51.2517 55.2546 46.7113 58.9664 45.7237C60.8091 45.2332 63.5134 45.5381 64.9783 46.8041C68.7762 50.0851 64.6336 55.5865 61.1471 56.9387" fill="#E5E5E5"/>
</g>
<path d="M43.7278 32.4676C44.7685 31.6324 46.1074 31.1088 47.3601 31.0027C49.6469 30.8039 51.2642 32.8387 51.1714 35.0924C51.0454 37.9425 47.9169 39.3278 45.3054 39.2151C43.2771 39.129 41.6068 37.2996 41.9448 35.3243C42.1503 34.171 42.8264 33.2033 43.7278 32.4676Z" fill="#ED6C30"/>
<path d="M25.8448 53.7374C26.6335 50.5625 30.405 48.5541 33.0894 50.821C35.648 52.9751 34.4482 57.2437 31.7373 58.808C29.9344 59.8486 27.2566 59.1527 26.2159 57.2239C25.6393 56.1567 25.5531 54.904 25.8448 53.7374Z" fill="#BDCF46"/>
<path d="M33.9578 64.5682C35.4624 67.4183 34.4615 71.8129 30.7961 72.1178C27.1307 72.4227 25.0825 68.1077 26.0304 64.9526C26.9782 61.8108 30.8624 61.2938 33.0497 63.3618C33.4209 63.7131 33.7258 64.1174 33.9578 64.5682Z" fill="#006CA2"/>
<path d="M40.2879 44.3117C39.3003 46.1278 37.0002 47.712 34.8726 47.4468C32.2014 47.1154 31.1541 43.9339 32.3141 41.6604C33.9048 38.5451 38.8893 37.299 40.5596 41.1301C41.017 42.184 40.838 43.3108 40.2879 44.3117Z" fill="#FCC21B"/>
</g>
<defs>
<filter id="filter0_d_2018_14854" x="11.4714" y="20.8081" width="77.5012" height="67.1919" filterUnits="userSpaceOnUse" color-interpolation-filters="sRGB">
<feFlood flood-opacity="0" result="BackgroundImageFix"/>
<feColorMatrix in="SourceAlpha" type="matrix" values="0 0 0 0 0 0 0 0 0 0 0 0 0 0 0 0 0 0 127 0" result="hardAlpha"/>
<feOffset dy="4"/>
<feGaussianBlur stdDeviation="2"/>
<feComposite in2="hardAlpha" operator="out"/>
<feColorMatrix type="matrix" values="0 0 0 0 0 0 0 0 0 0 0 0 0 0 0 0 0 0 0.25 0"/>
<feBlend mode="normal" in2="BackgroundImageFix" result="effect1_dropShadow_2018_14854"/>
<feBlend mode="normal" in="SourceGraphic" in2="effect1_dropShadow_2018_14854" result="shape"/>
</filter>
<clipPath id="clip0_2018_14854">
<rect width="100" height="100" rx="50" fill="white"/>
</clipPath>
</defs>
</svg>
