<svg width="96" height="98" viewBox="0 0 96 98" fill="none" xmlns="http://www.w3.org/2000/svg">
<g filter="url(#filter0_b_1258_13858)">
<path d="M34.14 16H61.86C72.42 16 81 24.58 81 35.14V62.86C81 67.9362 78.9835 72.8046 75.394 76.394C71.8046 79.9835 66.9362 82 61.86 82H34.14C23.58 82 15 73.42 15 62.86V35.14C15 30.0638 17.0165 25.1954 20.606 21.606C24.1954 18.0165 29.0638 16 34.14 16ZM33.48 22.6C30.3292 22.6 27.3075 23.8516 25.0796 26.0796C22.8516 28.3075 21.6 31.3292 21.6 34.48V63.52C21.6 70.087 26.913 75.4 33.48 75.4H62.52C65.6708 75.4 68.6925 74.1484 70.9204 71.9204C73.1484 69.6925 74.4 66.6708 74.4 63.52V34.48C74.4 27.913 69.087 22.6 62.52 22.6H33.48ZM65.325 27.55C66.419 27.55 67.4682 27.9846 68.2418 28.7582C69.0154 29.5318 69.45 30.581 69.45 31.675C69.45 32.769 69.0154 33.8182 68.2418 34.5918C67.4682 35.3654 66.419 35.8 65.325 35.8C64.231 35.8 63.1818 35.3654 62.4082 34.5918C61.6346 33.8182 61.2 32.769 61.2 31.675C61.2 30.581 61.6346 29.5318 62.4082 28.7582C63.1818 27.9846 64.231 27.55 65.325 27.55ZM48 32.5C52.3761 32.5 56.5729 34.2384 59.6673 37.3327C62.7616 40.4271 64.5 44.6239 64.5 49C64.5 53.3761 62.7616 57.5729 59.6673 60.6673C56.5729 63.7616 52.3761 65.5 48 65.5C43.6239 65.5 39.4271 63.7616 36.3327 60.6673C33.2384 57.5729 31.5 53.3761 31.5 49C31.5 44.6239 33.2384 40.4271 36.3327 37.3327C39.4271 34.2384 43.6239 32.5 48 32.5ZM48 39.1C45.3744 39.1 42.8563 40.143 40.9996 41.9996C39.143 43.8563 38.1 46.3744 38.1 49C38.1 51.6256 39.143 54.1437 40.9996 56.0004C42.8563 57.857 45.3744 58.9 48 58.9C50.6256 58.9 53.1437 57.857 55.0004 56.0004C56.857 54.1437 57.9 51.6256 57.9 49C57.9 46.3744 56.857 43.8563 55.0004 41.9996C53.1437 40.143 50.6256 39.1 48 39.1Z" fill="black"/>
<path d="M34.14 16H61.86C72.42 16 81 24.58 81 35.14V62.86C81 67.9362 78.9835 72.8046 75.394 76.394C71.8046 79.9835 66.9362 82 61.86 82H34.14C23.58 82 15 73.42 15 62.86V35.14C15 30.0638 17.0165 25.1954 20.606 21.606C24.1954 18.0165 29.0638 16 34.14 16ZM33.48 22.6C30.3292 22.6 27.3075 23.8516 25.0796 26.0796C22.8516 28.3075 21.6 31.3292 21.6 34.48V63.52C21.6 70.087 26.913 75.4 33.48 75.4H62.52C65.6708 75.4 68.6925 74.1484 70.9204 71.9204C73.1484 69.6925 74.4 66.6708 74.4 63.52V34.48C74.4 27.913 69.087 22.6 62.52 22.6H33.48ZM65.325 27.55C66.419 27.55 67.4682 27.9846 68.2418 28.7582C69.0154 29.5318 69.45 30.581 69.45 31.675C69.45 32.769 69.0154 33.8182 68.2418 34.5918C67.4682 35.3654 66.419 35.8 65.325 35.8C64.231 35.8 63.1818 35.3654 62.4082 34.5918C61.6346 33.8182 61.2 32.769 61.2 31.675C61.2 30.581 61.6346 29.5318 62.4082 28.7582C63.1818 27.9846 64.231 27.55 65.325 27.55ZM48 32.5C52.3761 32.5 56.5729 34.2384 59.6673 37.3327C62.7616 40.4271 64.5 44.6239 64.5 49C64.5 53.3761 62.7616 57.5729 59.6673 60.6673C56.5729 63.7616 52.3761 65.5 48 65.5C43.6239 65.5 39.4271 63.7616 36.3327 60.6673C33.2384 57.5729 31.5 53.3761 31.5 49C31.5 44.6239 33.2384 40.4271 36.3327 37.3327C39.4271 34.2384 43.6239 32.5 48 32.5ZM48 39.1C45.3744 39.1 42.8563 40.143 40.9996 41.9996C39.143 43.8563 38.1 46.3744 38.1 49C38.1 51.6256 39.143 54.1437 40.9996 56.0004C42.8563 57.857 45.3744 58.9 48 58.9C50.6256 58.9 53.1437 57.857 55.0004 56.0004C56.857 54.1437 57.9 51.6256 57.9 49C57.9 46.3744 56.857 43.8563 55.0004 41.9996C53.1437 40.143 50.6256 39.1 48 39.1Z" fill="black"/>
</g>
<defs>
<filter id="filter0_b_1258_13858" x="-20" y="-20" width="136" height="138" filterUnits="userSpaceOnUse" color-interpolation-filters="sRGB">
<feFlood flood-opacity="0" result="BackgroundImageFix"/>
<feGaussianBlur in="BackgroundImageFix" stdDeviation="10"/>
<feComposite in2="SourceAlpha" operator="in" result="effect1_backgroundBlur_1258_13858"/>
<feBlend mode="normal" in="SourceGraphic" in2="effect1_backgroundBlur_1258_13858" result="shape"/>
</filter>
</defs>
</svg>
