<svg width="100" height="100" viewBox="0 0 100 100" fill="none" xmlns="http://www.w3.org/2000/svg">
<g clip-path="url(#clip0_2018_14884)">
<rect width="100" height="100" rx="50" fill="#2F89BC"/>
<path d="M59.5 55L46 65L72 119L92.5 113L59.5 55Z" fill="#27739E"/>
<path d="M75.5 37.5L55 60L83.5 107.5L121 87.5L75.5 37.5Z" fill="#0C5C8A"/>
<path d="M70.805 21.875H73.745C74.9049 21.875 76.0173 22.3356 76.8377 23.1555C77.6581 23.9755 78.1194 25.0876 78.12 26.2475V29.19C78.1219 36.0425 75.5062 42.637 70.8075 47.625L67.7375 50.885C66.4677 52.2308 65.1363 53.5172 63.7475 54.74V67.335C63.7475 68.8725 62.94 70.295 61.6225 71.085L50.3375 77.8575C50.0813 78.0114 49.7921 78.1018 49.4939 78.1212C49.1956 78.1406 48.8971 78.0884 48.6231 77.9691C48.3491 77.8497 48.1077 77.6666 47.9188 77.4349C47.73 77.2033 47.5993 76.9299 47.5375 76.6375L45.13 65.2075C45.0056 65.1087 44.8887 65.0009 44.78 64.885L40.1 59.9L35.115 55.2175C34.9991 55.1089 34.8913 54.9919 34.7925 54.8675L23.365 52.46C23.0722 52.3989 22.7982 52.2686 22.566 52.0801C22.3338 51.8915 22.15 51.6501 22.0301 51.376C21.9102 51.102 21.8576 50.8032 21.8768 50.5047C21.8959 50.2062 21.9861 49.9165 22.14 49.66L28.915 38.375C29.705 37.0575 31.1275 36.25 32.665 36.25H45.2575C46.4804 34.863 47.7668 33.5332 49.1125 32.265L52.3725 29.19C57.3589 24.4917 63.9514 21.875 70.8025 21.875H70.805ZM54.945 31.92L51.685 34.9925C48.6173 37.8837 45.8873 41.1135 43.5475 44.62L38.065 52.845L42.7125 57.205L42.7975 57.29L47.155 61.935L55.375 56.455C58.8844 54.1141 62.1168 51.3825 65.01 48.3125L68.08 45.055C72.1237 40.7625 74.3747 35.0872 74.3725 29.19V26.25C74.3725 26.0842 74.3067 25.9253 74.1895 25.8081C74.0723 25.6908 73.9133 25.625 73.7475 25.625H70.805C64.9092 25.6248 59.2359 27.8766 54.945 31.92ZM34.77 51.03L40.425 42.5425C41.0017 41.6775 41.5992 40.83 42.2175 40H32.665C32.5573 40.0001 32.4515 40.0279 32.3578 40.0809C32.264 40.1339 32.1856 40.2103 32.13 40.3025L26.7125 49.3325L34.77 51.03ZM60 57.78C59.1667 58.4 58.3184 58.9983 57.455 59.575L48.9725 65.23L50.6675 73.2875L59.6975 67.87C59.7898 67.8144 59.8661 67.736 59.9191 67.6422C59.9721 67.5485 60 67.4427 60 67.335V57.78ZM63.75 40C63.7499 40.4926 63.6527 40.9804 63.464 41.4354C63.2753 41.8905 62.9989 42.3039 62.6504 42.6522C62.302 43.0004 61.8883 43.2766 61.4332 43.4649C60.978 43.6533 60.4901 43.7502 59.9975 43.75C59.5049 43.7498 59.0171 43.6526 58.5621 43.464C58.107 43.2753 57.6936 42.9989 57.3454 42.6504C56.9971 42.3019 56.721 41.8883 56.5326 41.4331C56.3442 40.9779 56.2474 40.4901 56.2475 39.9975C56.2479 39.0026 56.6434 38.0486 57.3471 37.3453C58.0509 36.6421 59.0051 36.2472 60 36.2475C60.9949 36.2478 61.9489 36.6434 62.6522 37.3471C63.3555 38.0508 63.7504 39.0051 63.75 40Z" fill="white"/>
<path d="M24.3925 76.225C26.4975 76.1125 33.2275 75.5225 36.25 72.5C38.5 70.25 38.5 66 36.25 63.75C34 61.5 29.75 61.5 27.5 63.75C24.4775 66.7725 23.8875 73.5025 23.775 75.6075C23.7704 75.69 23.7829 75.7726 23.8117 75.85C23.8406 75.9274 23.8851 75.9981 23.9425 76.0575C24.0019 76.1149 24.0725 76.1594 24.15 76.1882C24.2274 76.217 24.31 76.2296 24.3925 76.225Z" fill="#FCC21B"/>
</g>
<defs>
<clipPath id="clip0_2018_14884">
<rect width="100" height="100" rx="50" fill="white"/>
</clipPath>
</defs>
</svg>
