<svg width="50" height="50" viewBox="0 0 50 50" fill="none" xmlns="http://www.w3.org/2000/svg">
<g clip-path="url(#clip0_2001_14671)">
<path d="M34.5625 7H15.4375C10.7776 7 7 10.7776 7 15.4375V34.5625C7 39.2224 10.7776 43 15.4375 43H34.5625C39.2224 43 43 39.2224 43 34.5625V15.4375C43 10.7776 39.2224 7 34.5625 7Z" fill="#F0DB4F"/>
<path d="M16.465 37.0842L19.2198 35.4169C19.7514 36.3592 20.2349 37.1566 21.3946 37.1566C22.5062 37.1566 23.2071 36.7218 23.2071 35.0303V23.5275H26.5903V35.0781C26.5903 38.5821 24.5363 40.1771 21.5396 40.1771C18.8333 40.1771 17.2623 38.7755 16.4648 37.0839M28.4278 36.7216L31.1824 35.1268C31.9076 36.311 32.85 37.1809 34.5173 37.1809C35.9192 37.1809 36.813 36.48 36.813 35.5134C36.813 34.3535 35.8947 33.9426 34.3481 33.2662L33.5025 32.9035C31.0617 31.8646 29.4426 30.5596 29.4426 27.8047C29.4426 25.2673 31.3759 23.334 34.3966 23.334C36.5474 23.334 38.094 24.0832 39.2055 26.0406L36.5714 27.7322C35.9913 26.6931 35.3633 26.2823 34.3966 26.2823C33.4058 26.2823 32.7775 26.9106 32.7775 27.7322C32.7775 28.7471 33.4058 29.158 34.8556 29.7864L35.7014 30.1488C38.577 31.3814 40.1962 32.6377 40.1962 35.465C40.1962 38.5101 37.8038 40.1773 34.5899 40.1773C31.4484 40.1773 29.4185 38.6791 28.4278 36.7216Z" fill="#323330"/>
</g>
<defs>
<clipPath id="clip0_2001_14671">
<rect width="36" height="36" fill="white" transform="translate(7 7)"/>
</clipPath>
</defs>
</svg>
