<svg width="96" height="98" viewBox="0 0 96 98" fill="none" xmlns="http://www.w3.org/2000/svg">
<g filter="url(#filter0_b_1258_13840)">
<path d="M63.3235 52.2941V52.2936C63.3217 50.4179 62.7835 48.5819 61.7723 47.0021C60.7611 45.4223 59.3192 44.1647 57.6167 43.3776C55.9142 42.5904 54.022 42.3067 52.1635 42.5597C50.6328 42.7682 49.1775 43.3336 47.9128 44.2046C47.8326 43.7852 47.6284 43.3959 47.3221 43.0896C46.9195 42.687 46.3734 42.4608 45.8039 42.4608C45.2345 42.4608 44.6884 42.687 44.2857 43.0896C43.8831 43.4923 43.6569 44.0384 43.6569 44.6078V62.1765C43.6569 62.7459 43.8831 63.292 44.2857 63.6947C44.6884 64.0973 45.2345 64.3235 45.8039 64.3235C46.3734 64.3235 46.9195 64.0973 47.3221 63.6947C47.7248 63.292 47.951 62.7459 47.951 62.1765V52.2941C47.951 50.825 48.5346 49.4161 49.5734 48.3773C50.6122 47.3385 52.0211 46.7549 53.4902 46.7549C54.9593 46.7549 56.3682 47.3385 57.407 48.3773C58.4458 49.4161 59.0294 50.825 59.0294 52.2941V62.1765C59.0294 62.7459 59.2556 63.292 59.6583 63.6947C60.0609 64.0973 60.607 64.3235 61.1765 64.3235C61.7459 64.3235 62.292 64.0973 62.6947 63.6947C63.0973 63.292 63.3235 62.7459 63.3235 62.1765V52.2941ZM72.1569 20.5H23.8431C22.6913 20.5 21.5866 20.9576 20.7721 21.7721C19.9576 22.5866 19.5 23.6913 19.5 24.8431V73.1569C19.5 74.3087 19.9576 75.4134 20.7721 76.2279C21.5866 77.0424 22.6913 77.5 23.8431 77.5H72.1569C73.3087 77.5 74.4134 77.0424 75.2279 76.2279C76.0424 75.4134 76.5 74.3087 76.5 73.1569V24.8431C76.5 23.6913 76.0424 22.5866 75.2279 21.7721C74.4134 20.9576 73.3087 20.5 72.1569 20.5ZM72.2059 73.1569C72.2059 73.1699 72.2007 73.1823 72.1915 73.1915C72.1823 73.2007 72.1699 73.2059 72.1569 73.2059H23.8431C23.8301 73.2059 23.8177 73.2007 23.8085 73.1915C23.7993 73.1823 23.7941 73.1699 23.7941 73.1569V24.8431C23.7941 24.8301 23.7993 24.8177 23.8085 24.8085C23.8177 24.7993 23.8301 24.7941 23.8431 24.7941H72.1569C72.1699 24.7941 72.1823 24.7993 72.1915 24.8085C72.2007 24.8177 72.2059 24.8301 72.2059 24.8431V73.1569ZM39.1667 62.1765V44.6078C39.1667 44.0384 38.9405 43.4923 38.5378 43.0896C38.1352 42.687 37.589 42.4608 37.0196 42.4608C36.4502 42.4608 35.9041 42.687 35.5014 43.0896C35.0988 43.4923 34.8726 44.0384 34.8726 44.6078V62.1765C34.8726 62.7459 35.0988 63.292 35.5014 63.6947C35.9041 64.0973 36.4502 64.3235 37.0196 64.3235C37.589 64.3235 38.1352 64.0973 38.5378 63.6947C38.9405 63.292 39.1667 62.7459 39.1667 62.1765ZM39.7178 38.7244C40.0744 38.1908 40.2647 37.5634 40.2647 36.9216C40.2647 36.0609 39.9228 35.2355 39.3142 34.6269C38.7057 34.0184 37.8803 33.6765 37.0196 33.6765C36.3778 33.6765 35.7504 33.8668 35.2167 34.2234C34.6831 34.5799 34.2671 35.0868 34.0215 35.6797C33.7759 36.2727 33.7117 36.9252 33.8369 37.5547C33.9621 38.1841 34.2711 38.7624 34.725 39.2162C35.1788 39.67 35.757 39.9791 36.3865 40.1043C37.016 40.2295 37.6685 40.1653 38.2615 39.9196C38.8544 39.674 39.3612 39.2581 39.7178 38.7244Z" fill="white" stroke="white"/>
</g>
<defs>
<filter id="filter0_b_1258_13840" x="-20" y="-20" width="136" height="138" filterUnits="userSpaceOnUse" color-interpolation-filters="sRGB">
<feFlood flood-opacity="0" result="BackgroundImageFix"/>
<feGaussianBlur in="BackgroundImageFix" stdDeviation="10"/>
<feComposite in2="SourceAlpha" operator="in" result="effect1_backgroundBlur_1258_13840"/>
<feBlend mode="normal" in="SourceGraphic" in2="effect1_backgroundBlur_1258_13840" result="shape"/>
</filter>
</defs>
</svg>
