<svg width="96" height="98" viewBox="0 0 96 98" fill="none" xmlns="http://www.w3.org/2000/svg">
<g filter="url(#filter0_b_1258_13840)">
<path d="M22.0039 19.75H74.0039C74.8659 19.75 75.6925 20.0924 76.302 20.7019C76.9115 21.3114 77.2539 22.138 77.2539 23V75C77.2539 75.862 76.9115 76.6886 76.302 77.2981C75.6925 77.9076 74.8659 78.25 74.0039 78.25H22.0039C21.142 78.25 20.3153 77.9076 19.7058 77.2981C19.0963 76.6886 18.7539 75.862 18.7539 75V23C18.7539 22.138 19.0963 21.3114 19.7058 20.7019C20.3153 20.0924 21.142 19.75 22.0039 19.75ZM25.2539 26.25V71.75H70.7539V26.25H25.2539ZM33.3789 39.25C32.086 39.25 30.846 38.7364 29.9318 37.8221C29.0175 36.9079 28.5039 35.6679 28.5039 34.375C28.5039 33.0821 29.0175 31.8421 29.9318 30.9279C30.846 30.0136 32.086 29.5 33.3789 29.5C34.6718 29.5 35.9118 30.0136 36.8261 30.9279C37.7403 31.8421 38.2539 33.0821 38.2539 34.375C38.2539 35.6679 37.7403 36.9079 36.8261 37.8221C35.9118 38.7364 34.6718 39.25 33.3789 39.25ZM30.1289 42.5H36.6289V66.875H30.1289V42.5ZM48.0039 43.8975C49.9019 42.0613 52.1184 40.875 54.5039 40.875C61.2347 40.875 65.8789 46.3317 65.8789 53.0625V66.875H59.3789V53.0625C59.3789 51.5541 58.7797 50.1074 57.7131 49.0408C56.6465 47.9742 55.1998 47.375 53.6914 47.375C52.183 47.375 50.7364 47.9742 49.6697 49.0408C48.6031 50.1074 48.0039 51.5541 48.0039 53.0625V66.875H41.5039V42.5H48.0039V43.8975Z" fill="black"/>
</g>
<defs>
<filter id="filter0_b_1258_13840" x="-20" y="-20" width="136" height="138" filterUnits="userSpaceOnUse" color-interpolation-filters="sRGB">
<feFlood flood-opacity="0" result="BackgroundImageFix"/>
<feGaussianBlur in="BackgroundImageFix" stdDeviation="10"/>
<feComposite in2="SourceAlpha" operator="in" result="effect1_backgroundBlur_1258_13840"/>
<feBlend mode="normal" in="SourceGraphic" in2="effect1_backgroundBlur_1258_13840" result="shape"/>
</filter>
</defs>
</svg>
