<svg width="252" height="252" viewBox="0 0 252 252" fill="none" xmlns="http://www.w3.org/2000/svg">
<path d="M228.375 5.90618H23.625C18.9794 5.8589 14.5047 7.65649 11.1829 10.9045C7.86104 14.1525 5.96337 18.5857 5.90625 23.2312V228.808C5.9737 233.447 7.87591 237.87 11.1966 241.109C14.5173 244.349 18.9861 246.141 23.625 246.094H228.375C233.021 246.131 237.493 244.327 240.813 241.077C244.133 237.827 246.031 233.395 246.094 228.749V23.1721C246.011 18.5402 244.103 14.1282 240.785 10.8951C237.467 7.662 233.007 5.86913 228.375 5.90618Z" fill="#0076B2"/>
<path d="M41.46 95.937H77.1141V210.656H41.46V95.937ZM59.2969 38.8433C63.3862 38.8433 67.3837 40.0561 70.7836 42.3285C74.1835 44.6008 76.8331 47.8305 78.3971 51.6089C79.9611 55.3873 80.3693 59.5448 79.5701 63.5553C78.7709 67.5658 76.8001 71.2491 73.9071 74.1393C71.0141 77.0296 67.3289 78.9968 63.3177 79.7922C59.3064 80.5876 55.1494 80.1754 51.3724 78.6078C47.5955 77.0402 44.3684 74.3875 42.0993 70.9855C39.8302 67.5834 38.6211 63.5848 38.625 59.4954C38.6302 54.0163 40.8105 48.7634 44.6866 44.891C48.5628 41.0185 53.8178 38.8433 59.2969 38.8433ZM99.4791 95.937H133.657V111.687H134.129C138.893 102.67 150.509 93.1611 167.854 93.1611C203.961 93.0823 210.654 116.845 210.654 147.656V210.656H175V154.842C175 141.553 174.764 124.445 156.474 124.445C138.185 124.445 135.074 138.935 135.074 153.976V210.656H99.4791V95.937Z" fill="white"/>
</svg>
