<svg width="153" height="153" viewBox="0 0 153 153" fill="none" xmlns="http://www.w3.org/2000/svg">
<g clip-path="url(#clip0_2186_15077)">
<path d="M153 76.5C153 34.2502 118.75 0 76.5 0C34.2502 0 0 34.2502 0 76.5C0 118.75 34.2502 153 76.5 153C118.75 153 153 118.75 153 76.5Z" fill="#1A1A1A"/>
<path d="M67.0034 29.614C77.9917 26.5684 94.8403 23.8129 101.616 22C101.616 22 60.9618 33.9649 51.6198 44.8421C46.2733 51.0672 49.9716 57.3509 49.9716 57.3509C52.3942 66.5436 89.3111 77.8168 111.488 82.823C113.729 83.2046 115.623 83.5992 117 84C115.301 83.6607 113.452 83.2664 111.488 82.823C101.565 81.1329 84.8592 79.6968 76.3434 79.1053C44.2577 76.0597 34.2723 59.5263 36.2369 47.5614C37.8445 37.7719 53.2681 33.4211 67.0034 29.614Z" fill="white"/>
<path d="M85.9966 123.386C75.0083 126.432 58.1597 129.187 51.3836 131C51.3836 131 92.0382 119.035 101.38 108.158C106.727 101.933 103.028 95.6491 103.028 95.6491C100.606 86.4564 63.6889 75.1832 41.5122 70.177C39.2714 69.7954 37.3765 69.4008 36 69C37.6989 69.3393 39.5478 69.7336 41.5122 70.177C51.435 71.8671 68.1408 73.3032 76.6566 73.8947C108.742 76.9403 118.728 93.4737 116.763 105.439C115.155 115.228 99.7319 119.579 85.9966 123.386Z" fill="white"/>
</g>
<defs>
<clipPath id="clip0_2186_15077">
<rect width="153" height="153" fill="white"/>
</clipPath>
</defs>
</svg>
