<svg width="50" height="50" viewBox="0 0 50 50" fill="none" xmlns="http://www.w3.org/2000/svg">
<path d="M9 25C9 17.4581 9 13.6855 11.3427 11.3427C13.6855 9 17.4564 9 25 9C32.5419 9 36.3145 9 38.6573 11.3427C41 13.6855 41 17.4564 41 25C41 32.5419 41 36.3145 38.6573 38.6573C36.3145 41 32.5436 41 25 41C17.4581 41 13.6855 41 11.3427 38.6573C9 36.3145 9 32.5436 9 25Z" stroke="white" stroke-width="1.5" stroke-linecap="round" stroke-linejoin="round"/>
<path d="M34.2626 17.4209H33.1746C31.9732 17.4207 30.7936 17.7418 29.758 18.351C28.7224 18.9601 27.8686 19.8351 27.285 20.8853L22.714 29.1144C22.1304 30.1646 21.2766 31.0396 20.241 31.6487C19.2054 32.2579 18.0258 32.579 16.8243 32.5788H15.7363" stroke="white" stroke-width="1.5" stroke-linecap="round" stroke-linejoin="round"/>
</svg>
