<svg width="40" height="40" viewBox="0 0 40 40" fill="none" xmlns="http://www.w3.org/2000/svg">
<g filter="url(#filter0_d_1828_14552)">
<rect x="4" width="32" height="32" rx="16" fill="#B00000" shape-rendering="crispEdges"/>
<mask id="path-2-outside-1_1828_14552" maskUnits="userSpaceOnUse" x="7.9375" y="8.6875" width="24" height="14" fill="black">
<rect fill="white" x="7.9375" y="8.6875" width="24" height="14"/>
<path fill-rule="evenodd" clip-rule="evenodd" d="M16.1125 9.73329C15.4972 9.84178 14.7886 10.0237 14.5354 10.1382C13.7506 10.4931 12.9508 11.2524 12.3572 12.2062C12.1544 12.5319 11.9675 12.7967 11.9417 12.7946C11.9159 12.7925 11.7104 12.7625 11.485 12.7278L11.0752 12.6649L10.8482 12.1311C10.6228 11.6009 10.6191 11.5971 10.2759 11.5464C10.086 11.5184 9.70028 11.4955 9.41884 11.4955C8.96546 11.4955 8.91148 11.5113 8.94603 11.6337C9.00126 11.8297 9.17304 12.3171 9.20356 12.3641C9.21757 12.3858 9.56224 12.4213 9.96933 12.443C10.7103 12.4826 10.9888 12.6104 10.5429 12.7064C10.1755 12.7856 9.74495 13.1314 9.5684 13.4893C9.41393 13.8024 9.403 13.92 9.40512 15.2461C9.40703 16.4322 9.43388 16.7851 9.56759 17.378C9.76381 18.2481 9.94747 18.8154 10.1165 19.0736C10.1869 19.1809 10.2445 19.2964 10.2445 19.3302C10.2445 19.4134 10.4849 19.6664 10.7253 19.8359C10.9695 20.0081 11.5777 20.2351 11.9682 20.2996C12.2163 20.3406 12.1733 20.3057 11.6892 20.0737C11.079 19.781 10.5291 19.3201 10.4043 18.9967C9.93332 17.7757 9.65767 16.304 9.65767 15.0105C9.65767 13.3302 10.2665 12.7555 11.6806 13.101C11.9598 13.1692 12.7392 13.2623 13.4125 13.308C14.0859 13.3536 14.9441 13.4257 15.3196 13.4683C16.025 13.5483 17.0422 13.5756 16.9841 13.5129C16.9659 13.4934 16.5725 13.4374 16.11 13.3886C15.6474 13.3397 15.1269 13.2664 14.9532 13.2255C14.7795 13.1846 14.3009 13.1153 13.8896 13.0716C13.4783 13.028 12.9678 12.9548 12.7551 12.9091L12.3685 12.8259L12.535 12.4988C12.7478 12.081 13.869 10.8569 14.2054 10.675C15.2389 10.1162 16.2508 9.99527 19.8908 9.99527C24.3209 9.99527 25.1872 10.1811 26.3228 11.3746C26.9344 12.0173 27.4031 12.7437 27.2653 12.8354C27.2101 12.8721 26.832 12.9421 26.4249 12.9911C26.0177 13.0401 25.2225 13.1497 24.6577 13.2349C24.0929 13.32 23.4163 13.4209 23.154 13.459L22.6773 13.5283L23.1907 13.537C23.4731 13.5418 24.0114 13.5109 24.387 13.4683C24.7625 13.4257 25.6207 13.3552 26.2941 13.3114C26.9674 13.2678 27.743 13.1746 28.0177 13.1043C29.0251 12.8465 29.7089 13.1189 29.9407 13.8703C30.1582 14.575 30.0442 16.5077 29.7035 17.8913C29.4068 19.0964 29.0246 19.5892 28.0064 20.0799C27.5538 20.2981 27.4998 20.3407 27.7278 20.3001C29.2388 20.0313 29.7131 19.4462 30.1603 17.3002C30.3132 16.5663 30.3457 16.203 30.3467 15.2187C30.3478 14.1682 30.3291 13.9788 30.1888 13.6278C30.0255 13.2191 29.5836 12.7589 29.3545 12.7589C29.2768 12.7589 29.2403 12.7079 29.2558 12.6207C29.2766 12.5031 29.3913 12.4767 30.0256 12.443C30.4355 12.4213 30.7824 12.3858 30.7964 12.3641C30.827 12.3171 30.9987 11.8297 31.054 11.6337C31.0885 11.5113 31.0345 11.4955 30.5812 11.4955C30.2997 11.4955 29.914 11.5184 29.7241 11.5464C29.3803 11.5972 29.3776 11.6001 29.1486 12.1386C28.9378 12.6344 28.8997 12.68 28.6952 12.6806C28.5724 12.6809 28.305 12.7029 28.101 12.7293L27.7301 12.7773L27.413 12.2534C26.8608 11.3409 25.8973 10.427 25.1654 10.1217C25.0072 10.0557 24.5213 9.92918 24.0855 9.84051C23.3521 9.69144 23.0335 9.68022 19.7945 9.69017C17.8703 9.6961 16.2133 9.71552 16.1125 9.73329ZM17.231 13.6029C17.3017 13.6228 17.4171 13.6228 17.4878 13.6029C17.5584 13.5831 17.5006 13.5668 17.3594 13.5668C17.2182 13.5668 17.1604 13.5831 17.231 13.6029ZM22.2936 13.6032C22.3649 13.6233 22.464 13.6219 22.5136 13.6003C22.5633 13.5786 22.5049 13.5623 22.3839 13.5639C22.2628 13.5655 22.2222 13.5831 22.2936 13.6032ZM18.1525 13.6814C18.2054 13.7042 18.2687 13.7013 18.2931 13.6751C18.3174 13.6489 18.2742 13.6303 18.1968 13.6337C18.1114 13.6375 18.094 13.6562 18.1525 13.6814ZM21.4533 13.6814C21.5062 13.7042 21.5695 13.7013 21.5938 13.6751C21.6182 13.6489 21.5749 13.6303 21.4976 13.6337C21.4121 13.6375 21.3947 13.6562 21.4533 13.6814ZM10.5533 14.488C10.5045 14.6357 10.4645 14.9226 10.4645 15.1257C10.4645 15.648 10.6472 15.8165 11.6141 16.1872C12.3892 16.4843 14.0452 16.9056 14.1202 16.8249C14.1818 16.7585 13.8868 16.3461 13.4669 15.9118C13.1845 15.6195 12.8098 15.3481 12.3501 15.1024C11.4005 14.595 11.365 14.6104 11.9333 15.2838C12.134 15.5216 12.2983 15.7465 12.2983 15.7835C12.2983 15.8628 11.8915 15.7771 11.6772 15.6528C11.0146 15.2685 10.7613 14.9728 10.6858 14.496L10.642 14.2196L10.5533 14.488ZM29.0689 14.4718C29.0432 14.4996 29.022 14.5794 29.022 14.6491C29.022 14.9004 28.5621 15.3796 28.0999 15.6099C27.8476 15.7355 27.6054 15.8383 27.5615 15.8383C27.452 15.8383 27.4606 15.6238 27.5734 15.5462C27.7368 15.4336 28.2275 14.7329 28.1429 14.7329C27.9677 14.7329 26.8573 15.3859 26.4572 15.7242C26.0476 16.0707 25.5201 16.7535 25.5975 16.8369C25.6652 16.9097 27.1933 16.5122 28.1332 16.1775C29.1032 15.8319 29.2361 15.6897 29.2397 14.9942C29.2419 14.539 29.1806 14.3516 29.0689 14.4718ZM15.0112 16.3145C14.8341 16.7213 14.8485 17.1228 15.059 17.6544C15.6743 19.2084 16.3255 19.6415 18.0135 19.6191C19.1633 19.6038 19.2796 19.52 18.3047 19.4093C17.8363 19.3561 17.3121 19.3126 17.1398 19.3126C16.8729 19.3126 16.7882 19.2687 16.567 19.0165L16.3074 18.7204L17.2552 18.6915L18.2029 18.6627L17.5795 18.5567C17.2365 18.4984 16.801 18.4492 16.6116 18.4473C16.2476 18.4438 16.2765 18.471 15.9574 17.8318C15.9085 17.7338 15.8822 17.6398 15.8989 17.6228C15.9154 17.6058 16.556 17.6388 17.3222 17.6961C18.0884 17.7534 18.7264 17.7884 18.74 17.7737C18.7792 17.7315 17.0749 17.4153 16.1459 17.2925C15.788 17.2452 15.772 17.2322 15.6599 16.8962C15.5961 16.7052 15.5515 16.549 15.5608 16.549C15.8133 16.549 17.683 16.7419 18.2689 16.8283C19.4912 17.0087 19.3297 16.9193 17.8362 16.5888C17.1341 16.4334 16.0733 16.1796 15.551 16.0421L15.173 15.9426L15.0112 16.3145ZM24.0709 16.0711C23.8167 16.1411 22.6033 16.432 21.9071 16.5899C20.9025 16.8176 20.6532 16.8837 20.6819 16.9145C20.6983 16.9322 21.0549 16.8935 21.4744 16.8287C22.2546 16.7082 24.1198 16.5358 24.1611 16.5803C24.1738 16.5939 24.1421 16.7417 24.0909 16.9087L23.9976 17.2123L22.9707 17.3893C21.3875 17.6619 20.9421 17.7474 20.9672 17.7737C20.9799 17.7871 21.6174 17.7522 22.3839 17.6964C23.1504 17.6406 23.8007 17.6172 23.8291 17.6446C23.8574 17.6719 23.7863 17.8575 23.671 18.0569L23.4614 18.4194L22.886 18.477C21.5585 18.6099 21.447 18.658 22.4389 18.6698C22.9532 18.6759 23.3741 18.7005 23.3741 18.7246C23.3741 18.7486 23.2833 18.8908 23.1724 19.0404C22.9877 19.2896 22.9366 19.313 22.5672 19.3178C22.3454 19.3206 21.8007 19.3666 21.357 19.4199C20.6632 19.5032 20.5912 19.5244 20.8435 19.5717C21.6519 19.7232 23.0143 19.5907 23.5232 19.3112C24.0651 19.0136 24.6658 18.0159 24.8453 17.1153C24.9178 16.7509 24.9092 16.6734 24.7606 16.353C24.5863 15.9774 24.5158 15.9486 24.0709 16.0711ZM10.8395 16.8211C10.8575 16.8404 11.1353 16.9138 11.4569 16.9842C12.6247 17.2397 13.5337 17.8702 13.9032 18.6809C14.4831 19.9529 14.8385 20.3968 15.4903 20.6633C16.1043 20.9144 17.313 20.8328 18.643 20.4505L19.0098 20.3452L18.5903 20.3904C18.3595 20.4152 17.6169 20.4405 16.9399 20.4465C15.7185 20.4574 15.7064 20.4558 15.3631 20.2386C14.9565 19.9813 14.7886 19.7519 14.3201 18.8139C13.8898 17.9525 13.6419 17.6437 13.1141 17.3121C12.5748 16.9732 11.9323 16.7858 11.3094 16.7858C11.033 16.7858 10.8215 16.8017 10.8395 16.8211ZM27.4028 16.9304C27.1779 17.0029 26.9067 17.1244 26.8003 17.2004C26.6938 17.2763 26.5758 17.3386 26.5381 17.3386C26.3886 17.3386 25.7305 18.1305 25.5468 18.5315C25.0724 19.5676 24.7056 20.0802 24.2781 20.3051C24.0357 20.4326 23.8303 20.4515 22.7667 20.4441C22.0897 20.4394 21.3471 20.4151 21.1163 20.39L20.6968 20.3443L21.1002 20.4537C21.3221 20.5139 21.9658 20.6237 22.5306 20.6978C23.4888 20.8235 23.5891 20.8238 24.0301 20.702C24.7888 20.4923 25.1594 20.1015 25.699 18.9418C25.8493 18.6188 26.0822 18.2164 26.2166 18.0473C26.5124 17.6753 27.3133 17.2378 28.0318 17.0559C29.0159 16.8066 29.0225 16.802 28.3986 16.8003C28.0584 16.7994 27.6398 16.8541 27.4028 16.9304ZM11.0419 17.5474C11.0831 17.628 11.1971 17.8749 11.2953 18.096C11.511 18.582 11.8593 19.1109 12.0911 19.3047C12.3404 19.513 13.2069 19.8013 13.4869 19.7691C13.7158 19.7427 13.7064 19.7339 13.3088 19.6009C12.532 19.3411 12.2404 19.1025 11.943 18.4835C11.8518 18.2936 11.79 18.2247 11.788 18.3105C11.7834 18.5154 11.6785 18.4177 11.376 17.9271C11.1166 17.5065 10.8886 17.2474 11.0419 17.5474ZM28.5581 17.9747C28.2888 18.4253 28.1426 18.5552 28.1412 18.3453C28.1407 18.2911 28.0419 18.4315 27.9215 18.6575C27.6822 19.1066 27.3489 19.3587 26.6932 19.5864C26.4814 19.6599 26.3081 19.739 26.3081 19.7622C26.3081 19.8317 26.9794 19.7092 27.3717 19.5679C27.6965 19.451 28.0192 19.1741 28.3383 18.7387C28.5253 18.4834 28.9479 17.4846 28.8619 17.5009C28.8491 17.5033 28.7124 17.7165 28.5581 17.9747ZM10.4278 21.9724C10.5489 21.9892 11.0262 22.0781 11.4887 22.1697C12.2755 22.3258 12.4899 22.3335 14.8261 22.2888C16.1992 22.2625 18.313 22.2017 19.5232 22.1536C20.7335 22.1055 23.0275 22.0387 24.621 22.0049C26.8193 21.9585 25.4302 21.9435 18.8631 21.9428C14.1027 21.9423 10.3068 21.9557 10.4278 21.9724Z"/>
</mask>
<path fill-rule="evenodd" clip-rule="evenodd" d="M16.1125 9.73329C15.4972 9.84178 14.7886 10.0237 14.5354 10.1382C13.7506 10.4931 12.9508 11.2524 12.3572 12.2062C12.1544 12.5319 11.9675 12.7967 11.9417 12.7946C11.9159 12.7925 11.7104 12.7625 11.485 12.7278L11.0752 12.6649L10.8482 12.1311C10.6228 11.6009 10.6191 11.5971 10.2759 11.5464C10.086 11.5184 9.70028 11.4955 9.41884 11.4955C8.96546 11.4955 8.91148 11.5113 8.94603 11.6337C9.00126 11.8297 9.17304 12.3171 9.20356 12.3641C9.21757 12.3858 9.56224 12.4213 9.96933 12.443C10.7103 12.4826 10.9888 12.6104 10.5429 12.7064C10.1755 12.7856 9.74495 13.1314 9.5684 13.4893C9.41393 13.8024 9.403 13.92 9.40512 15.2461C9.40703 16.4322 9.43388 16.7851 9.56759 17.378C9.76381 18.2481 9.94747 18.8154 10.1165 19.0736C10.1869 19.1809 10.2445 19.2964 10.2445 19.3302C10.2445 19.4134 10.4849 19.6664 10.7253 19.8359C10.9695 20.0081 11.5777 20.2351 11.9682 20.2996C12.2163 20.3406 12.1733 20.3057 11.6892 20.0737C11.079 19.781 10.5291 19.3201 10.4043 18.9967C9.93332 17.7757 9.65767 16.304 9.65767 15.0105C9.65767 13.3302 10.2665 12.7555 11.6806 13.101C11.9598 13.1692 12.7392 13.2623 13.4125 13.308C14.0859 13.3536 14.9441 13.4257 15.3196 13.4683C16.025 13.5483 17.0422 13.5756 16.9841 13.5129C16.9659 13.4934 16.5725 13.4374 16.11 13.3886C15.6474 13.3397 15.1269 13.2664 14.9532 13.2255C14.7795 13.1846 14.3009 13.1153 13.8896 13.0716C13.4783 13.028 12.9678 12.9548 12.7551 12.9091L12.3685 12.8259L12.535 12.4988C12.7478 12.081 13.869 10.8569 14.2054 10.675C15.2389 10.1162 16.2508 9.99527 19.8908 9.99527C24.3209 9.99527 25.1872 10.1811 26.3228 11.3746C26.9344 12.0173 27.4031 12.7437 27.2653 12.8354C27.2101 12.8721 26.832 12.9421 26.4249 12.9911C26.0177 13.0401 25.2225 13.1497 24.6577 13.2349C24.0929 13.32 23.4163 13.4209 23.154 13.459L22.6773 13.5283L23.1907 13.537C23.4731 13.5418 24.0114 13.5109 24.387 13.4683C24.7625 13.4257 25.6207 13.3552 26.2941 13.3114C26.9674 13.2678 27.743 13.1746 28.0177 13.1043C29.0251 12.8465 29.7089 13.1189 29.9407 13.8703C30.1582 14.575 30.0442 16.5077 29.7035 17.8913C29.4068 19.0964 29.0246 19.5892 28.0064 20.0799C27.5538 20.2981 27.4998 20.3407 27.7278 20.3001C29.2388 20.0313 29.7131 19.4462 30.1603 17.3002C30.3132 16.5663 30.3457 16.203 30.3467 15.2187C30.3478 14.1682 30.3291 13.9788 30.1888 13.6278C30.0255 13.2191 29.5836 12.7589 29.3545 12.7589C29.2768 12.7589 29.2403 12.7079 29.2558 12.6207C29.2766 12.5031 29.3913 12.4767 30.0256 12.443C30.4355 12.4213 30.7824 12.3858 30.7964 12.3641C30.827 12.3171 30.9987 11.8297 31.054 11.6337C31.0885 11.5113 31.0345 11.4955 30.5812 11.4955C30.2997 11.4955 29.914 11.5184 29.7241 11.5464C29.3803 11.5972 29.3776 11.6001 29.1486 12.1386C28.9378 12.6344 28.8997 12.68 28.6952 12.6806C28.5724 12.6809 28.305 12.7029 28.101 12.7293L27.7301 12.7773L27.413 12.2534C26.8608 11.3409 25.8973 10.427 25.1654 10.1217C25.0072 10.0557 24.5213 9.92918 24.0855 9.84051C23.3521 9.69144 23.0335 9.68022 19.7945 9.69017C17.8703 9.6961 16.2133 9.71552 16.1125 9.73329ZM17.231 13.6029C17.3017 13.6228 17.4171 13.6228 17.4878 13.6029C17.5584 13.5831 17.5006 13.5668 17.3594 13.5668C17.2182 13.5668 17.1604 13.5831 17.231 13.6029ZM22.2936 13.6032C22.3649 13.6233 22.464 13.6219 22.5136 13.6003C22.5633 13.5786 22.5049 13.5623 22.3839 13.5639C22.2628 13.5655 22.2222 13.5831 22.2936 13.6032ZM18.1525 13.6814C18.2054 13.7042 18.2687 13.7013 18.2931 13.6751C18.3174 13.6489 18.2742 13.6303 18.1968 13.6337C18.1114 13.6375 18.094 13.6562 18.1525 13.6814ZM21.4533 13.6814C21.5062 13.7042 21.5695 13.7013 21.5938 13.6751C21.6182 13.6489 21.5749 13.6303 21.4976 13.6337C21.4121 13.6375 21.3947 13.6562 21.4533 13.6814ZM10.5533 14.488C10.5045 14.6357 10.4645 14.9226 10.4645 15.1257C10.4645 15.648 10.6472 15.8165 11.6141 16.1872C12.3892 16.4843 14.0452 16.9056 14.1202 16.8249C14.1818 16.7585 13.8868 16.3461 13.4669 15.9118C13.1845 15.6195 12.8098 15.3481 12.3501 15.1024C11.4005 14.595 11.365 14.6104 11.9333 15.2838C12.134 15.5216 12.2983 15.7465 12.2983 15.7835C12.2983 15.8628 11.8915 15.7771 11.6772 15.6528C11.0146 15.2685 10.7613 14.9728 10.6858 14.496L10.642 14.2196L10.5533 14.488ZM29.0689 14.4718C29.0432 14.4996 29.022 14.5794 29.022 14.6491C29.022 14.9004 28.5621 15.3796 28.0999 15.6099C27.8476 15.7355 27.6054 15.8383 27.5615 15.8383C27.452 15.8383 27.4606 15.6238 27.5734 15.5462C27.7368 15.4336 28.2275 14.7329 28.1429 14.7329C27.9677 14.7329 26.8573 15.3859 26.4572 15.7242C26.0476 16.0707 25.5201 16.7535 25.5975 16.8369C25.6652 16.9097 27.1933 16.5122 28.1332 16.1775C29.1032 15.8319 29.2361 15.6897 29.2397 14.9942C29.2419 14.539 29.1806 14.3516 29.0689 14.4718ZM15.0112 16.3145C14.8341 16.7213 14.8485 17.1228 15.059 17.6544C15.6743 19.2084 16.3255 19.6415 18.0135 19.6191C19.1633 19.6038 19.2796 19.52 18.3047 19.4093C17.8363 19.3561 17.3121 19.3126 17.1398 19.3126C16.8729 19.3126 16.7882 19.2687 16.567 19.0165L16.3074 18.7204L17.2552 18.6915L18.2029 18.6627L17.5795 18.5567C17.2365 18.4984 16.801 18.4492 16.6116 18.4473C16.2476 18.4438 16.2765 18.471 15.9574 17.8318C15.9085 17.7338 15.8822 17.6398 15.8989 17.6228C15.9154 17.6058 16.556 17.6388 17.3222 17.6961C18.0884 17.7534 18.7264 17.7884 18.74 17.7737C18.7792 17.7315 17.0749 17.4153 16.1459 17.2925C15.788 17.2452 15.772 17.2322 15.6599 16.8962C15.5961 16.7052 15.5515 16.549 15.5608 16.549C15.8133 16.549 17.683 16.7419 18.2689 16.8283C19.4912 17.0087 19.3297 16.9193 17.8362 16.5888C17.1341 16.4334 16.0733 16.1796 15.551 16.0421L15.173 15.9426L15.0112 16.3145ZM24.0709 16.0711C23.8167 16.1411 22.6033 16.432 21.9071 16.5899C20.9025 16.8176 20.6532 16.8837 20.6819 16.9145C20.6983 16.9322 21.0549 16.8935 21.4744 16.8287C22.2546 16.7082 24.1198 16.5358 24.1611 16.5803C24.1738 16.5939 24.1421 16.7417 24.0909 16.9087L23.9976 17.2123L22.9707 17.3893C21.3875 17.6619 20.9421 17.7474 20.9672 17.7737C20.9799 17.7871 21.6174 17.7522 22.3839 17.6964C23.1504 17.6406 23.8007 17.6172 23.8291 17.6446C23.8574 17.6719 23.7863 17.8575 23.671 18.0569L23.4614 18.4194L22.886 18.477C21.5585 18.6099 21.447 18.658 22.4389 18.6698C22.9532 18.6759 23.3741 18.7005 23.3741 18.7246C23.3741 18.7486 23.2833 18.8908 23.1724 19.0404C22.9877 19.2896 22.9366 19.313 22.5672 19.3178C22.3454 19.3206 21.8007 19.3666 21.357 19.4199C20.6632 19.5032 20.5912 19.5244 20.8435 19.5717C21.6519 19.7232 23.0143 19.5907 23.5232 19.3112C24.0651 19.0136 24.6658 18.0159 24.8453 17.1153C24.9178 16.7509 24.9092 16.6734 24.7606 16.353C24.5863 15.9774 24.5158 15.9486 24.0709 16.0711ZM10.8395 16.8211C10.8575 16.8404 11.1353 16.9138 11.4569 16.9842C12.6247 17.2397 13.5337 17.8702 13.9032 18.6809C14.4831 19.9529 14.8385 20.3968 15.4903 20.6633C16.1043 20.9144 17.313 20.8328 18.643 20.4505L19.0098 20.3452L18.5903 20.3904C18.3595 20.4152 17.6169 20.4405 16.9399 20.4465C15.7185 20.4574 15.7064 20.4558 15.3631 20.2386C14.9565 19.9813 14.7886 19.7519 14.3201 18.8139C13.8898 17.9525 13.6419 17.6437 13.1141 17.3121C12.5748 16.9732 11.9323 16.7858 11.3094 16.7858C11.033 16.7858 10.8215 16.8017 10.8395 16.8211ZM27.4028 16.9304C27.1779 17.0029 26.9067 17.1244 26.8003 17.2004C26.6938 17.2763 26.5758 17.3386 26.5381 17.3386C26.3886 17.3386 25.7305 18.1305 25.5468 18.5315C25.0724 19.5676 24.7056 20.0802 24.2781 20.3051C24.0357 20.4326 23.8303 20.4515 22.7667 20.4441C22.0897 20.4394 21.3471 20.4151 21.1163 20.39L20.6968 20.3443L21.1002 20.4537C21.3221 20.5139 21.9658 20.6237 22.5306 20.6978C23.4888 20.8235 23.5891 20.8238 24.0301 20.702C24.7888 20.4923 25.1594 20.1015 25.699 18.9418C25.8493 18.6188 26.0822 18.2164 26.2166 18.0473C26.5124 17.6753 27.3133 17.2378 28.0318 17.0559C29.0159 16.8066 29.0225 16.802 28.3986 16.8003C28.0584 16.7994 27.6398 16.8541 27.4028 16.9304ZM11.0419 17.5474C11.0831 17.628 11.1971 17.8749 11.2953 18.096C11.511 18.582 11.8593 19.1109 12.0911 19.3047C12.3404 19.513 13.2069 19.8013 13.4869 19.7691C13.7158 19.7427 13.7064 19.7339 13.3088 19.6009C12.532 19.3411 12.2404 19.1025 11.943 18.4835C11.8518 18.2936 11.79 18.2247 11.788 18.3105C11.7834 18.5154 11.6785 18.4177 11.376 17.9271C11.1166 17.5065 10.8886 17.2474 11.0419 17.5474ZM28.5581 17.9747C28.2888 18.4253 28.1426 18.5552 28.1412 18.3453C28.1407 18.2911 28.0419 18.4315 27.9215 18.6575C27.6822 19.1066 27.3489 19.3587 26.6932 19.5864C26.4814 19.6599 26.3081 19.739 26.3081 19.7622C26.3081 19.8317 26.9794 19.7092 27.3717 19.5679C27.6965 19.451 28.0192 19.1741 28.3383 18.7387C28.5253 18.4834 28.9479 17.4846 28.8619 17.5009C28.8491 17.5033 28.7124 17.7165 28.5581 17.9747ZM10.4278 21.9724C10.5489 21.9892 11.0262 22.0781 11.4887 22.1697C12.2755 22.3258 12.4899 22.3335 14.8261 22.2888C16.1992 22.2625 18.313 22.2017 19.5232 22.1536C20.7335 22.1055 23.0275 22.0387 24.621 22.0049C26.8193 21.9585 25.4302 21.9435 18.8631 21.9428C14.1027 21.9423 10.3068 21.9557 10.4278 21.9724Z" fill="white"/>
<path fill-rule="evenodd" clip-rule="evenodd" d="M16.1125 9.73329C15.4972 9.84178 14.7886 10.0237 14.5354 10.1382C13.7506 10.4931 12.9508 11.2524 12.3572 12.2062C12.1544 12.5319 11.9675 12.7967 11.9417 12.7946C11.9159 12.7925 11.7104 12.7625 11.485 12.7278L11.0752 12.6649L10.8482 12.1311C10.6228 11.6009 10.6191 11.5971 10.2759 11.5464C10.086 11.5184 9.70028 11.4955 9.41884 11.4955C8.96546 11.4955 8.91148 11.5113 8.94603 11.6337C9.00126 11.8297 9.17304 12.3171 9.20356 12.3641C9.21757 12.3858 9.56224 12.4213 9.96933 12.443C10.7103 12.4826 10.9888 12.6104 10.5429 12.7064C10.1755 12.7856 9.74495 13.1314 9.5684 13.4893C9.41393 13.8024 9.403 13.92 9.40512 15.2461C9.40703 16.4322 9.43388 16.7851 9.56759 17.378C9.76381 18.2481 9.94747 18.8154 10.1165 19.0736C10.1869 19.1809 10.2445 19.2964 10.2445 19.3302C10.2445 19.4134 10.4849 19.6664 10.7253 19.8359C10.9695 20.0081 11.5777 20.2351 11.9682 20.2996C12.2163 20.3406 12.1733 20.3057 11.6892 20.0737C11.079 19.781 10.5291 19.3201 10.4043 18.9967C9.93332 17.7757 9.65767 16.304 9.65767 15.0105C9.65767 13.3302 10.2665 12.7555 11.6806 13.101C11.9598 13.1692 12.7392 13.2623 13.4125 13.308C14.0859 13.3536 14.9441 13.4257 15.3196 13.4683C16.025 13.5483 17.0422 13.5756 16.9841 13.5129C16.9659 13.4934 16.5725 13.4374 16.11 13.3886C15.6474 13.3397 15.1269 13.2664 14.9532 13.2255C14.7795 13.1846 14.3009 13.1153 13.8896 13.0716C13.4783 13.028 12.9678 12.9548 12.7551 12.9091L12.3685 12.8259L12.535 12.4988C12.7478 12.081 13.869 10.8569 14.2054 10.675C15.2389 10.1162 16.2508 9.99527 19.8908 9.99527C24.3209 9.99527 25.1872 10.1811 26.3228 11.3746C26.9344 12.0173 27.4031 12.7437 27.2653 12.8354C27.2101 12.8721 26.832 12.9421 26.4249 12.9911C26.0177 13.0401 25.2225 13.1497 24.6577 13.2349C24.0929 13.32 23.4163 13.4209 23.154 13.459L22.6773 13.5283L23.1907 13.537C23.4731 13.5418 24.0114 13.5109 24.387 13.4683C24.7625 13.4257 25.6207 13.3552 26.2941 13.3114C26.9674 13.2678 27.743 13.1746 28.0177 13.1043C29.0251 12.8465 29.7089 13.1189 29.9407 13.8703C30.1582 14.575 30.0442 16.5077 29.7035 17.8913C29.4068 19.0964 29.0246 19.5892 28.0064 20.0799C27.5538 20.2981 27.4998 20.3407 27.7278 20.3001C29.2388 20.0313 29.7131 19.4462 30.1603 17.3002C30.3132 16.5663 30.3457 16.203 30.3467 15.2187C30.3478 14.1682 30.3291 13.9788 30.1888 13.6278C30.0255 13.2191 29.5836 12.7589 29.3545 12.7589C29.2768 12.7589 29.2403 12.7079 29.2558 12.6207C29.2766 12.5031 29.3913 12.4767 30.0256 12.443C30.4355 12.4213 30.7824 12.3858 30.7964 12.3641C30.827 12.3171 30.9987 11.8297 31.054 11.6337C31.0885 11.5113 31.0345 11.4955 30.5812 11.4955C30.2997 11.4955 29.914 11.5184 29.7241 11.5464C29.3803 11.5972 29.3776 11.6001 29.1486 12.1386C28.9378 12.6344 28.8997 12.68 28.6952 12.6806C28.5724 12.6809 28.305 12.7029 28.101 12.7293L27.7301 12.7773L27.413 12.2534C26.8608 11.3409 25.8973 10.427 25.1654 10.1217C25.0072 10.0557 24.5213 9.92918 24.0855 9.84051C23.3521 9.69144 23.0335 9.68022 19.7945 9.69017C17.8703 9.6961 16.2133 9.71552 16.1125 9.73329ZM17.231 13.6029C17.3017 13.6228 17.4171 13.6228 17.4878 13.6029C17.5584 13.5831 17.5006 13.5668 17.3594 13.5668C17.2182 13.5668 17.1604 13.5831 17.231 13.6029ZM22.2936 13.6032C22.3649 13.6233 22.464 13.6219 22.5136 13.6003C22.5633 13.5786 22.5049 13.5623 22.3839 13.5639C22.2628 13.5655 22.2222 13.5831 22.2936 13.6032ZM18.1525 13.6814C18.2054 13.7042 18.2687 13.7013 18.2931 13.6751C18.3174 13.6489 18.2742 13.6303 18.1968 13.6337C18.1114 13.6375 18.094 13.6562 18.1525 13.6814ZM21.4533 13.6814C21.5062 13.7042 21.5695 13.7013 21.5938 13.6751C21.6182 13.6489 21.5749 13.6303 21.4976 13.6337C21.4121 13.6375 21.3947 13.6562 21.4533 13.6814ZM10.5533 14.488C10.5045 14.6357 10.4645 14.9226 10.4645 15.1257C10.4645 15.648 10.6472 15.8165 11.6141 16.1872C12.3892 16.4843 14.0452 16.9056 14.1202 16.8249C14.1818 16.7585 13.8868 16.3461 13.4669 15.9118C13.1845 15.6195 12.8098 15.3481 12.3501 15.1024C11.4005 14.595 11.365 14.6104 11.9333 15.2838C12.134 15.5216 12.2983 15.7465 12.2983 15.7835C12.2983 15.8628 11.8915 15.7771 11.6772 15.6528C11.0146 15.2685 10.7613 14.9728 10.6858 14.496L10.642 14.2196L10.5533 14.488ZM29.0689 14.4718C29.0432 14.4996 29.022 14.5794 29.022 14.6491C29.022 14.9004 28.5621 15.3796 28.0999 15.6099C27.8476 15.7355 27.6054 15.8383 27.5615 15.8383C27.452 15.8383 27.4606 15.6238 27.5734 15.5462C27.7368 15.4336 28.2275 14.7329 28.1429 14.7329C27.9677 14.7329 26.8573 15.3859 26.4572 15.7242C26.0476 16.0707 25.5201 16.7535 25.5975 16.8369C25.6652 16.9097 27.1933 16.5122 28.1332 16.1775C29.1032 15.8319 29.2361 15.6897 29.2397 14.9942C29.2419 14.539 29.1806 14.3516 29.0689 14.4718ZM15.0112 16.3145C14.8341 16.7213 14.8485 17.1228 15.059 17.6544C15.6743 19.2084 16.3255 19.6415 18.0135 19.6191C19.1633 19.6038 19.2796 19.52 18.3047 19.4093C17.8363 19.3561 17.3121 19.3126 17.1398 19.3126C16.8729 19.3126 16.7882 19.2687 16.567 19.0165L16.3074 18.7204L17.2552 18.6915L18.2029 18.6627L17.5795 18.5567C17.2365 18.4984 16.801 18.4492 16.6116 18.4473C16.2476 18.4438 16.2765 18.471 15.9574 17.8318C15.9085 17.7338 15.8822 17.6398 15.8989 17.6228C15.9154 17.6058 16.556 17.6388 17.3222 17.6961C18.0884 17.7534 18.7264 17.7884 18.74 17.7737C18.7792 17.7315 17.0749 17.4153 16.1459 17.2925C15.788 17.2452 15.772 17.2322 15.6599 16.8962C15.5961 16.7052 15.5515 16.549 15.5608 16.549C15.8133 16.549 17.683 16.7419 18.2689 16.8283C19.4912 17.0087 19.3297 16.9193 17.8362 16.5888C17.1341 16.4334 16.0733 16.1796 15.551 16.0421L15.173 15.9426L15.0112 16.3145ZM24.0709 16.0711C23.8167 16.1411 22.6033 16.432 21.9071 16.5899C20.9025 16.8176 20.6532 16.8837 20.6819 16.9145C20.6983 16.9322 21.0549 16.8935 21.4744 16.8287C22.2546 16.7082 24.1198 16.5358 24.1611 16.5803C24.1738 16.5939 24.1421 16.7417 24.0909 16.9087L23.9976 17.2123L22.9707 17.3893C21.3875 17.6619 20.9421 17.7474 20.9672 17.7737C20.9799 17.7871 21.6174 17.7522 22.3839 17.6964C23.1504 17.6406 23.8007 17.6172 23.8291 17.6446C23.8574 17.6719 23.7863 17.8575 23.671 18.0569L23.4614 18.4194L22.886 18.477C21.5585 18.6099 21.447 18.658 22.4389 18.6698C22.9532 18.6759 23.3741 18.7005 23.3741 18.7246C23.3741 18.7486 23.2833 18.8908 23.1724 19.0404C22.9877 19.2896 22.9366 19.313 22.5672 19.3178C22.3454 19.3206 21.8007 19.3666 21.357 19.4199C20.6632 19.5032 20.5912 19.5244 20.8435 19.5717C21.6519 19.7232 23.0143 19.5907 23.5232 19.3112C24.0651 19.0136 24.6658 18.0159 24.8453 17.1153C24.9178 16.7509 24.9092 16.6734 24.7606 16.353C24.5863 15.9774 24.5158 15.9486 24.0709 16.0711ZM10.8395 16.8211C10.8575 16.8404 11.1353 16.9138 11.4569 16.9842C12.6247 17.2397 13.5337 17.8702 13.9032 18.6809C14.4831 19.9529 14.8385 20.3968 15.4903 20.6633C16.1043 20.9144 17.313 20.8328 18.643 20.4505L19.0098 20.3452L18.5903 20.3904C18.3595 20.4152 17.6169 20.4405 16.9399 20.4465C15.7185 20.4574 15.7064 20.4558 15.3631 20.2386C14.9565 19.9813 14.7886 19.7519 14.3201 18.8139C13.8898 17.9525 13.6419 17.6437 13.1141 17.3121C12.5748 16.9732 11.9323 16.7858 11.3094 16.7858C11.033 16.7858 10.8215 16.8017 10.8395 16.8211ZM27.4028 16.9304C27.1779 17.0029 26.9067 17.1244 26.8003 17.2004C26.6938 17.2763 26.5758 17.3386 26.5381 17.3386C26.3886 17.3386 25.7305 18.1305 25.5468 18.5315C25.0724 19.5676 24.7056 20.0802 24.2781 20.3051C24.0357 20.4326 23.8303 20.4515 22.7667 20.4441C22.0897 20.4394 21.3471 20.4151 21.1163 20.39L20.6968 20.3443L21.1002 20.4537C21.3221 20.5139 21.9658 20.6237 22.5306 20.6978C23.4888 20.8235 23.5891 20.8238 24.0301 20.702C24.7888 20.4923 25.1594 20.1015 25.699 18.9418C25.8493 18.6188 26.0822 18.2164 26.2166 18.0473C26.5124 17.6753 27.3133 17.2378 28.0318 17.0559C29.0159 16.8066 29.0225 16.802 28.3986 16.8003C28.0584 16.7994 27.6398 16.8541 27.4028 16.9304ZM11.0419 17.5474C11.0831 17.628 11.1971 17.8749 11.2953 18.096C11.511 18.582 11.8593 19.1109 12.0911 19.3047C12.3404 19.513 13.2069 19.8013 13.4869 19.7691C13.7158 19.7427 13.7064 19.7339 13.3088 19.6009C12.532 19.3411 12.2404 19.1025 11.943 18.4835C11.8518 18.2936 11.79 18.2247 11.788 18.3105C11.7834 18.5154 11.6785 18.4177 11.376 17.9271C11.1166 17.5065 10.8886 17.2474 11.0419 17.5474ZM28.5581 17.9747C28.2888 18.4253 28.1426 18.5552 28.1412 18.3453C28.1407 18.2911 28.0419 18.4315 27.9215 18.6575C27.6822 19.1066 27.3489 19.3587 26.6932 19.5864C26.4814 19.6599 26.3081 19.739 26.3081 19.7622C26.3081 19.8317 26.9794 19.7092 27.3717 19.5679C27.6965 19.451 28.0192 19.1741 28.3383 18.7387C28.5253 18.4834 28.9479 17.4846 28.8619 17.5009C28.8491 17.5033 28.7124 17.7165 28.5581 17.9747ZM10.4278 21.9724C10.5489 21.9892 11.0262 22.0781 11.4887 22.1697C12.2755 22.3258 12.4899 22.3335 14.8261 22.2888C16.1992 22.2625 18.313 22.2017 19.5232 22.1536C20.7335 22.1055 23.0275 22.0387 24.621 22.0049C26.8193 21.9585 25.4302 21.9435 18.8631 21.9428C14.1027 21.9423 10.3068 21.9557 10.4278 21.9724Z" stroke="white" stroke-width="0.2" mask="url(#path-2-outside-1_1828_14552)"/>
</g>
<defs>
<filter id="filter0_d_1828_14552" x="0" y="0" width="40" height="40" filterUnits="userSpaceOnUse" color-interpolation-filters="sRGB">
<feFlood flood-opacity="0" result="BackgroundImageFix"/>
<feColorMatrix in="SourceAlpha" type="matrix" values="0 0 0 0 0 0 0 0 0 0 0 0 0 0 0 0 0 0 127 0" result="hardAlpha"/>
<feOffset dy="4"/>
<feGaussianBlur stdDeviation="2"/>
<feComposite in2="hardAlpha" operator="out"/>
<feColorMatrix type="matrix" values="0 0 0 0 0 0 0 0 0 0 0 0 0 0 0 0 0 0 0.25 0"/>
<feBlend mode="normal" in2="BackgroundImageFix" result="effect1_dropShadow_1828_14552"/>
<feBlend mode="normal" in="SourceGraphic" in2="effect1_dropShadow_1828_14552" result="shape"/>
</filter>
</defs>
</svg>
