<svg width="512" height="512" viewBox="0 0 512 512" fill="none" xmlns="http://www.w3.org/2000/svg">
<rect width="512" height="512" rx="256" fill="#B60000"/>
<path fill-rule="evenodd" clip-rule="evenodd" d="M183.647 148.057C163.322 153.798 147.361 166.644 135.787 186.566C129.21 197.889 126.736 199.875 120.858 198.543C116.689 197.598 112.156 193.154 109.754 187.647C106.112 179.306 104.301 178.345 92.2006 178.345C79.3572 178.345 78.8139 178.698 80.9626 185.622C82.7428 191.369 85.9099 193.239 96.0257 194.516L108.831 196.133L100.924 200.228C96.5773 202.478 91.6026 208.006 89.8689 212.508C85.4458 224.008 85.9509 264.047 90.7999 286.094C96.0094 309.778 101.97 320.418 113.128 325.939C126.163 332.391 130.488 331.324 119.531 324.364C114.346 321.068 107.949 314.885 105.314 310.619C98.5212 299.619 92.176 267.711 92.2197 244.775C92.2934 205.671 96.6674 201.534 132.344 206.819C145.543 208.775 168.016 211.094 182.282 211.971L208.22 213.568L180.917 208.808C137.789 201.285 135.866 200.832 135.866 198.187C135.866 191.738 156.344 168.423 167.956 161.651C180.57 154.29 182.882 154.089 254.635 154.089C325.448 154.089 328.798 154.371 339.624 161.23C352.552 169.422 375.508 198.536 370.575 200.483C368.797 201.185 351.812 204.416 332.831 207.66L298.32 213.562L322.893 212.029C336.408 211.188 359.449 208.921 374.094 206.993C397.203 203.95 401.602 204.17 407.366 208.643C417.001 216.12 418.945 236.984 413.219 271.495C407.636 305.156 402.831 315.402 388.51 324.189C378.839 330.121 378.495 330.683 385.69 328.811C405.823 323.568 415.125 306.004 420.354 263.342C424.247 231.56 421.798 215.473 411.292 203.85L403.191 194.881L415.985 193.892C426.355 193.087 429.205 191.521 431.037 185.622C433.186 178.698 432.643 178.345 419.799 178.345C407.688 178.345 405.891 179.299 402.233 187.682C399.131 194.781 395.797 197.343 388.308 198.381C379.861 199.548 377.933 198.533 374.744 191.227C369.706 179.687 350.447 159.497 338.292 153.009C330.024 148.598 316.637 147.605 258.73 147.11C220.438 146.783 186.65 147.21 183.647 148.057ZM104.492 230.907C100.531 242.258 105.287 251.954 117.431 257.288C131.965 263.669 161.064 272.475 162.397 270.897C165.004 267.805 147.353 248.306 135.511 241.198C121.721 232.922 118.196 234.484 127.692 244.665C135.359 252.883 132.582 254.257 121.218 247.87C115.605 244.713 110.521 238.866 109.027 233.85C106.843 226.505 106.18 226.072 104.492 230.907ZM398.558 235.719C395.183 242.753 379.519 254.587 377.207 251.845C376.573 251.097 378.624 246.618 381.764 241.893L387.47 233.3L379.784 236.76C366.769 242.621 354.66 252.737 348.607 262.805L342.827 272.42L350.608 270.415C368.601 265.777 394.236 255.952 398.893 251.909C402.285 248.966 403.603 244.477 402.97 238.019C402.042 228.565 402.001 228.542 398.558 235.719ZM175.268 263.788C172.062 278.918 181.326 302.582 194.44 312.76C202.77 319.225 238.805 323.704 235.774 317.896C234.706 315.852 227.304 314.179 219.313 314.179C209.738 314.179 203.635 312.527 201.394 309.328C198.451 305.127 199.958 304.416 212.665 304.008L227.332 303.539L212.053 300.324C201.768 298.161 195.663 295.004 193.372 290.661C190.055 284.364 190.527 284.244 212.61 285.758C237.62 287.475 234.349 283.992 207.485 280.305C194.83 278.568 189.654 276.363 187.611 271.844C184.99 266.042 185.924 265.81 206.09 267.236L227.332 268.736L212.315 264.125C204.056 261.589 192.739 258.597 187.166 257.478C177.927 255.619 176.881 256.172 175.268 263.788ZM297.037 262.769C270.143 269.826 263.77 272.637 279.208 270.641C324.878 264.739 322.082 264.713 321.052 271.055C320.285 275.774 315.736 277.763 298.661 280.845C286.877 282.973 276.737 285.305 276.125 286.026C275.516 286.751 284.253 286.641 295.54 285.78C306.83 284.923 316.048 285.506 316.026 287.071C315.922 294.121 310.833 297.33 295.59 299.956L279.208 302.779L293.752 303.808C306.074 304.674 307.797 305.548 305.02 309.506C302.994 312.397 296.731 314.179 288.592 314.179C281.354 314.179 274.555 315.868 273.479 317.928C270.506 323.626 307.092 318.766 315.335 312.368C319.024 309.506 325.142 299.144 328.929 289.341C334.57 274.749 335.275 270.108 332.825 263.743C329.358 254.726 327.859 254.687 297.037 262.769ZM125.914 275.299C144.759 282.43 152.139 289.91 163.164 313.048C167.773 322.724 174.825 332.307 179.393 335.104C188.174 340.483 204.662 341.22 221.871 337.003C231.097 334.742 229.137 334.27 209.246 333.956C187.379 333.61 185.168 332.95 178.271 324.69C174.186 319.797 166.967 308.52 162.23 299.626C152.401 281.181 135.116 268.795 119.588 269.076C110.649 269.238 111.119 269.7 125.914 275.299ZM230.745 271.042C232.623 271.942 235.695 271.942 237.57 271.042C239.449 270.147 237.912 269.412 234.158 269.412C230.403 269.412 228.869 270.147 230.745 271.042ZM372.833 272.097C360.019 276.673 348.91 288.335 342.021 304.441C331.561 328.885 324.757 333.516 298.634 333.963L276.477 334.341L291.494 337.401C310.459 341.265 325.822 339.057 332.995 331.434C336.064 328.17 342.272 317.766 346.791 308.316C356.055 288.937 360.991 284.312 381.911 275.399C393.96 270.266 395.134 269.163 388.42 269.296C383.915 269.383 376.901 270.645 372.833 272.097ZM119.13 296.608C126.07 313.465 130.25 317.394 143.132 319.173L153.613 320.622L144.636 317.278C139.323 315.295 133.477 309.69 130.313 303.546C127.372 297.831 124.934 294.613 124.896 296.392C124.855 298.17 122.324 295.987 119.269 291.54L113.715 283.455L119.13 296.608ZM390.929 292.676C389.984 295.59 388.297 297.3 387.18 296.482C386.061 295.664 383.56 298.51 381.619 302.808C379.678 307.103 373.655 312.802 368.238 315.467C360.669 319.192 359.779 320.353 364.401 320.48C374.272 320.755 384.101 313.756 390.165 302.136C393.302 296.12 395.142 290.341 394.257 289.289C393.37 288.238 391.871 289.765 390.929 292.676ZM119.979 363.442C129.983 365.473 171.167 365.522 236.017 363.568L336.544 360.544L220.506 360.415C136.669 360.324 108.771 361.162 119.979 363.442Z" fill="white"/>
</svg>
