<svg width="50" height="50" viewBox="0 0 50 50" fill="none" xmlns="http://www.w3.org/2000/svg">
<path d="M18.0923 14.7798C17.7711 14.7959 17.4689 14.9368 17.2501 15.1725C17.0314 15.4081 16.9133 15.72 16.9212 16.0415C16.9291 16.3629 17.0623 16.6686 17.2923 16.8933C17.5224 17.118 17.8311 17.2439 18.1527 17.2441L32.3398 16.8989L15.213 34.0257C14.9818 34.2569 14.8519 34.5705 14.8519 34.8975C14.8519 35.2245 14.9818 35.5381 15.213 35.7693C15.4442 36.0005 15.7578 36.1304 16.0848 36.1304C16.4118 36.1304 16.7254 36.0005 16.9566 35.7693L34.0834 18.6425L33.7394 32.8308C33.7353 32.9927 33.7632 33.1537 33.8214 33.3049C33.8796 33.456 33.967 33.5941 34.0786 33.7115C34.1902 33.8288 34.3239 33.923 34.4719 33.9887C34.6199 34.0544 34.7794 34.0903 34.9413 34.0943C35.1032 34.0983 35.2643 34.0705 35.4154 34.0122C35.5665 33.954 35.7046 33.8666 35.822 33.755C35.9393 33.6434 36.0335 33.5098 36.0992 33.3618C36.1649 33.2138 36.2008 33.0543 36.2048 32.8924L36.6151 16.0527C36.6242 15.6849 36.5096 15.3247 36.2897 15.0298C36.1983 14.8981 36.0837 14.7843 35.9514 14.6938C35.6568 14.4753 35.2975 14.3615 34.9308 14.3707L18.0923 14.7798Z" fill="white"/>
</svg>
