<svg width="24" height="24" viewBox="0 0 24 24" fill="none" xmlns="http://www.w3.org/2000/svg">
<path d="M21 7V17C21 18.0609 20.5786 19.0783 19.8284 19.8284C19.0783 20.5786 18.0609 21 17 21H7C5.93913 21 4.92172 20.5786 4.17157 19.8284C3.42143 19.0783 3 18.0609 3 17V7C3 5.93913 3.42143 4.92172 4.17157 4.17157C4.92172 3.42143 5.93913 3 7 3H17C18.0609 3 19.0783 3.42143 19.8284 4.17157C20.5786 4.92172 21 5.93913 21 7Z" stroke="white" stroke-width="1.5" stroke-linecap="round" stroke-linejoin="round"/>
<path d="M7 16V12M7 12V8H9C9.53043 8 10.0391 8.21071 10.4142 8.58579C10.7893 8.96086 11 9.46957 11 10C11 10.5304 10.7893 11.0391 10.4142 11.4142C10.0391 11.7893 9.53043 12 9 12H7ZM17 11C16.694 10.387 16.067 10 15.382 10H15C14.6022 10 14.2206 10.158 13.9393 10.4393C13.658 10.7206 13.5 11.1022 13.5 11.5C13.5 11.8978 13.658 12.2794 13.9393 12.5607C14.2206 12.842 14.6022 13 15 13H15.5C15.8978 13 16.2794 13.158 16.5607 13.4393C16.842 13.7206 17 14.1022 17 14.5C17 14.8978 16.842 15.2794 16.5607 15.5607C16.2794 15.842 15.8978 16 15.5 16H15.118C14.7821 15.9999 14.4528 15.9063 14.1671 15.7297C13.8813 15.5531 13.6503 15.3004 13.5 15" stroke="white" stroke-width="1.5" stroke-linecap="round" stroke-linejoin="round"/>
</svg>
