<svg width="50" height="50" viewBox="0 0 50 50" fill="none" xmlns="http://www.w3.org/2000/svg">
<g clip-path="url(#clip0_2001_14632)">
<path d="M34.5625 7H15.4375C10.7776 7 7 10.7776 7 15.4375V34.5625C7 39.2224 10.7776 43 15.4375 43H34.5625C39.2224 43 43 39.2224 43 34.5625V15.4375C43 10.7776 39.2224 7 34.5625 7Z" fill="#001E36"/>
<path d="M15.0996 32.0366V16.6016C15.0996 16.4966 15.1446 16.4367 15.2497 16.4367C15.5046 16.4367 15.7447 16.4367 16.0896 16.4216C16.4496 16.4066 16.8247 16.4066 17.2297 16.3917C17.6347 16.3766 18.0696 16.3766 18.5347 16.3616C18.9996 16.3467 19.4496 16.3467 19.8996 16.3467C21.1296 16.3467 22.1496 16.4966 22.9897 16.8116C23.7426 17.0673 24.4292 17.4875 24.9996 18.0416C25.4829 18.5266 25.8564 19.1097 26.0947 19.7516C26.3197 20.3816 26.4396 21.0267 26.4396 21.7017C26.4396 22.9916 26.1397 24.0566 25.5396 24.8967C24.9396 25.7366 24.0996 26.3666 23.1247 26.7266C22.1046 27.1017 20.9796 27.2367 19.7497 27.2367C19.3897 27.2367 19.1496 27.2367 18.9996 27.2216C18.8497 27.2066 18.6396 27.2066 18.3547 27.2066V32.0216C18.3696 32.1266 18.2946 32.2166 18.1896 32.2317H15.2796C15.1597 32.2317 15.0996 32.1716 15.0996 32.0366ZM18.3696 19.3316V24.3716C18.5797 24.3866 18.7746 24.4017 18.9546 24.4017H19.7497C20.3347 24.4017 20.9197 24.3117 21.4746 24.1317C21.9547 23.9967 22.3746 23.7116 22.7046 23.3366C23.0196 22.9617 23.1697 22.4516 23.1697 21.7917C23.1837 21.3229 23.064 20.8598 22.8246 20.4566C22.5696 20.0666 22.2096 19.7667 21.7747 19.6016C21.2196 19.3766 20.6196 19.2866 20.0046 19.3016C19.6147 19.3016 19.2696 19.3016 18.9847 19.3167C18.6846 19.3016 18.4746 19.3167 18.3696 19.3316ZM35.7996 23.4567C35.3496 23.2166 34.8697 23.0517 34.3596 22.9466C33.8046 22.8267 33.2497 22.7516 32.6796 22.7516C32.3796 22.7367 32.0646 22.7817 31.7796 22.8566C31.5847 22.9016 31.4196 23.0067 31.3147 23.1566C31.2396 23.2767 31.1946 23.4266 31.1946 23.5616C31.1946 23.6966 31.2546 23.8316 31.3446 23.9517C31.4796 24.1166 31.6596 24.2516 31.8547 24.3567C32.2024 24.5368 32.5577 24.7019 32.9196 24.8517C33.7296 25.1217 34.5097 25.4966 35.2297 25.9466C35.7247 26.2616 36.1297 26.6816 36.4146 27.1917C36.6546 27.6716 36.7746 28.1966 36.7597 28.7366C36.7746 29.4417 36.5646 30.1466 36.1747 30.7316C35.7562 31.3304 35.1724 31.7943 34.4946 32.0666C33.7596 32.3816 32.8596 32.5467 31.7796 32.5467C31.0897 32.5467 30.4147 32.4866 29.7397 32.3516C29.2106 32.2603 28.6961 32.0989 28.2097 31.8717C28.1046 31.8116 28.0297 31.7066 28.0446 31.5866V28.9766C28.0446 28.9316 28.0596 28.8716 28.1046 28.8416C28.1496 28.8117 28.1946 28.8266 28.2396 28.8567C28.8246 29.2016 29.4396 29.4417 30.0997 29.5916C30.6696 29.7416 31.2697 29.8166 31.8696 29.8166C32.4397 29.8166 32.8447 29.7416 33.1147 29.6066C33.3546 29.5016 33.5197 29.2466 33.5197 28.9766C33.5197 28.7667 33.3996 28.5716 33.1597 28.3766C32.9196 28.1817 32.4246 27.9567 31.6896 27.6716C30.9356 27.4059 30.2195 27.0429 29.5597 26.5916C29.0896 26.2566 28.7002 25.821 28.4196 25.3166C28.1796 24.8366 28.0596 24.3117 28.0747 23.7866C28.0747 23.1417 28.2547 22.5266 28.5846 21.9717C28.9596 21.3716 29.5147 20.8917 30.1596 20.5916C30.8647 20.2316 31.7496 20.0666 32.8146 20.0666C33.4297 20.0666 34.0597 20.1116 34.6746 20.2016C35.1246 20.2617 35.5596 20.3816 35.9646 20.5466C36.0246 20.5616 36.0847 20.6217 36.1146 20.6816C36.1297 20.7416 36.1446 20.8017 36.1446 20.8616V23.3066C36.1446 23.3667 36.1146 23.4266 36.0696 23.4567C35.9346 23.4866 35.8597 23.4866 35.7996 23.4567Z" fill="#31A8FF"/>
</g>
<defs>
<clipPath id="clip0_2001_14632">
<rect width="36" height="36" fill="white" transform="translate(7 7)"/>
</clipPath>
</defs>
</svg>
