<svg width="24" height="24" viewBox="0 0 24 24" fill="none" xmlns="http://www.w3.org/2000/svg">
<path d="M10.25 12H5.875C5.64294 12 5.42038 11.9042 5.25628 11.7337C5.09219 11.5632 5 11.332 5 11.0909V7.90909C5 7.66799 5.09219 7.43675 5.25628 7.26627C5.42038 7.09578 5.64294 7 5.875 7H9.375C9.60706 7 9.82962 7.09578 9.99372 7.26627C10.1578 7.43675 10.25 7.66799 10.25 7.90909V12ZM10.25 12C10.25 14.2727 9.375 15.6364 6.75 17M19 12H14.625C14.3929 12 14.1704 11.9042 14.0063 11.7337C13.8422 11.5632 13.75 11.332 13.75 11.0909V7.90909C13.75 7.66799 13.8422 7.43675 14.0063 7.26627C14.1704 7.09578 14.3929 7 14.625 7H18.125C18.3571 7 18.5796 7.09578 18.7437 7.26627C18.9078 7.43675 19 7.66799 19 7.90909V12ZM19 12C19 14.2727 18.125 15.6364 15.5 17" stroke="white" stroke-linecap="round"/>
</svg>
