<svg width="24" height="24" viewBox="0 0 24 24" fill="none" xmlns="http://www.w3.org/2000/svg">
<path d="M19.2174 8.5491C20.0706 10.3334 20.2325 12.3704 19.672 14.2671C19.1116 16.1638 17.8684 17.7856 16.1825 18.8196C14.4965 19.8536 12.4873 20.2264 10.5427 19.8661C8.59803 19.5058 6.85575 18.438 5.65212 16.8687C4.44848 15.2994 3.86882 13.3398 4.025 11.3683C4.18117 9.39668 5.06212 7.55284 6.49782 6.1926C7.93352 4.83236 9.82219 4.05213 11.7993 4.00252C13.7764 3.95291 15.7019 4.63741 17.204 5.92393L18.9461 4.181C19.0615 4.06564 19.218 4.00083 19.3811 4.00083C19.5443 4.00083 19.7007 4.06564 19.8161 4.181C19.9314 4.29636 19.9962 4.45282 19.9962 4.61596C19.9962 4.77911 19.9314 4.93557 19.8161 5.05093L12.4386 12.4284C12.3232 12.5438 12.1667 12.6086 12.0036 12.6086C11.8405 12.6086 11.684 12.5438 11.5686 12.4284C11.4533 12.3131 11.3885 12.1566 11.3885 11.9935C11.3885 11.8303 11.4533 11.6739 11.5686 11.5585L13.6989 9.42825C13.1216 9.04643 12.4323 8.87063 11.7426 8.92931C11.0529 8.98798 10.4032 9.27771 9.89872 9.75157C9.39419 10.2254 9.06436 10.8557 8.96262 11.5404C8.86088 12.225 8.99318 12.924 9.3381 13.5241C9.68303 14.1241 10.2204 14.5903 10.8632 14.847C11.506 15.1037 12.2166 15.1359 12.88 14.9385C13.5435 14.741 14.1208 14.3254 14.5186 13.759C14.9165 13.1926 15.1115 12.5085 15.0722 11.8175C15.0676 11.7368 15.0791 11.6559 15.1058 11.5796C15.1325 11.5033 15.1739 11.4329 15.2278 11.3726C15.2817 11.3123 15.3469 11.2632 15.4198 11.2281C15.4926 11.1931 15.5717 11.1727 15.6524 11.1681C15.8154 11.1589 15.9755 11.2149 16.0973 11.3237C16.1576 11.3776 16.2066 11.4428 16.2417 11.5157C16.2768 11.5885 16.2972 11.6676 16.3018 11.7483C16.3578 12.7264 16.0785 13.6944 15.5098 14.4922C14.9412 15.2901 14.1174 15.87 13.1745 16.1362C12.2317 16.4024 11.2262 16.3389 10.3243 15.9562C9.42239 15.5735 8.67807 14.8946 8.21434 14.0315C7.75061 13.1685 7.59522 12.1731 7.77387 11.2098C7.95252 10.2465 8.45451 9.37298 9.19687 8.73363C9.93923 8.09429 10.8775 7.72738 11.8567 7.69355C12.8358 7.65971 13.7972 7.96098 14.5819 8.54756L16.3302 6.79925C15.049 5.7355 13.4199 5.18262 11.7559 5.2468C10.0919 5.31098 8.51021 5.98769 7.31472 7.14696C6.11923 8.30623 5.3942 9.86632 5.27888 11.5276C5.16356 13.1888 5.66607 14.8342 6.68992 16.1475C7.71376 17.4608 9.18673 18.3496 10.8259 18.6431C12.4651 18.9365 14.155 18.6141 15.5709 17.7375C16.9868 16.861 18.029 15.4923 18.4972 13.8942C18.9654 12.2961 18.8267 10.5814 18.1077 9.07936C18.0374 8.9322 18.0284 8.76314 18.0828 8.60936C18.1371 8.45559 18.2503 8.32969 18.3974 8.25938C18.5446 8.18906 18.7137 8.18008 18.8674 8.23441C19.0212 8.28875 19.1471 8.40194 19.2174 8.5491Z" fill="white"/>
</svg>
