<svg width="40" height="40" viewBox="0 0 40 40" fill="none" xmlns="http://www.w3.org/2000/svg">
<g filter="url(#filter0_d_1828_14574)">
<rect x="4" width="32" height="32" rx="16" fill="#E9FBFF" shape-rendering="crispEdges"/>
<path fill-rule="evenodd" clip-rule="evenodd" d="M25.7551 10.6766C25.7551 10.6766 26.1287 10.5627 26.5406 10.6766C26.6525 10.7075 26.7673 10.7553 26.8782 10.8267C27.2278 11.0519 27.552 11.6524 27.552 11.6524L27.5626 11.9285C27.5951 11.9426 27.6276 11.9597 27.6594 11.9801C27.857 12.1071 28.0403 12.4456 28.0403 12.4456L28.1249 14.6462C28.1249 14.6462 27.9001 14.9499 27.683 15.0667L27.7018 15.5555C27.7018 15.5555 27.0922 16.3812 26.6536 16.3812H25.7551L25.7551 15.6302L25.7551 12.5422V12.4811V11.7213V10.6766Z" fill="#FCD884"/>
<path fill-rule="evenodd" clip-rule="evenodd" d="M14.2449 10.6766C14.2449 10.6766 13.8713 10.5627 13.4594 10.6766C13.3475 10.7075 13.2327 10.7553 13.1218 10.8267C12.7722 11.0519 12.448 11.6524 12.448 11.6524L12.4374 11.9285C12.4049 11.9426 12.3725 11.9597 12.3406 11.9801C12.143 12.1071 11.9597 12.4456 11.9597 12.4456L11.8751 14.6462C11.8751 14.6462 12.0999 14.9499 12.317 15.0667L12.2983 15.5555C12.2983 15.5555 12.9079 16.3812 13.3464 16.3812H14.2449L14.2449 15.6302L14.2449 12.5422V12.4811V11.7213V10.6766Z" fill="#FCD884"/>
<path fill-rule="evenodd" clip-rule="evenodd" d="M15.3663 5.99157C14.9983 6.1406 14.6993 6.43857 14.555 6.82601C14.2818 7.55965 14.8243 8.34066 15.6072 8.34066H24.297C25.1692 8.34066 25.7426 7.43036 25.3659 6.64371C25.2155 6.32967 24.9519 6.09309 24.6377 5.97342C24.4107 7.02834 23.6579 7.4828 23.3008 7.57894C23.9102 7.20654 24.0061 6.2953 23.9779 5.88623H16.0222C15.9939 6.2953 16.0899 7.20654 16.6993 7.57894C16.3442 7.48336 15.598 7.03356 15.3663 5.99157Z" fill="#636363"/>
<path fill-rule="evenodd" clip-rule="evenodd" d="M15.8215 8.59473C14.717 8.59473 13.8215 9.49016 13.8215 10.5947V22.4215C13.8215 23.5261 14.717 24.4215 15.8215 24.4215H24.1783C25.2829 24.4215 26.1783 23.5261 26.1783 22.4215V10.5947C26.1783 9.49016 25.2829 8.59473 24.1783 8.59473H15.8215ZM15.6505 11.3877C15.9709 11.3877 16.2838 11.5 16.5299 11.7051C16.776 11.9102 17.0862 12.0225 17.4065 12.0225H19.9153H22.4923C22.824 12.0225 23.1461 11.9106 23.4065 11.7051L23.4148 11.6985C23.6698 11.4972 23.9852 11.3877 24.3102 11.3877C25.1082 11.3877 25.7551 12.0346 25.7551 12.8327V14.7833C25.7551 15.2421 25.6139 15.7072 25.259 15.998C25.1987 16.0474 25.1374 16.0921 25.0781 16.1273C24.63 16.3925 23.8201 16.389 23.6071 16.3831C23.5717 16.3821 23.5369 16.3812 23.5016 16.3812H19.9153H15.7886C15.5237 16.3812 15.26 16.3316 15.0219 16.2153C14.907 16.1592 14.7895 16.097 14.7102 16.0426C14.649 16.0007 14.5916 15.9496 14.5396 15.8956C14.3113 15.659 14.2447 15.3205 14.2447 14.9918V12.7858C14.2447 12.0137 14.8784 11.3877 15.6505 11.3877ZM16.9659 18.2845C16.9146 17.9512 17.1725 17.6507 17.5096 17.6507H22.4136C22.7756 17.6507 23.0389 17.9943 22.9448 18.3439C22.8801 18.5841 22.6623 18.751 22.4136 18.751H17.5096C17.2381 18.751 17.0072 18.5529 16.9659 18.2845ZM17.3762 19.6273C17.3318 19.3449 17.5501 19.0895 17.836 19.0895H22.0974C22.4047 19.0895 22.6277 19.3822 22.5462 19.6785C22.4906 19.8805 22.3069 20.0205 22.0974 20.0205H17.836C17.6068 20.0205 17.4118 19.8537 17.3762 19.6273ZM18.0804 20.2744C17.8448 20.2744 17.6657 20.4861 17.7048 20.7185C17.7356 20.9018 17.8944 21.0361 18.0804 21.0361H21.8606C22.0295 21.0361 22.1783 20.9249 22.226 20.7628C22.2978 20.5189 22.1149 20.2744 21.8606 20.2744H18.0804ZM14.2447 21.5468C14.2447 21.1283 14.7224 20.8866 15.0572 21.1377L15.2603 21.2901C15.5973 21.5233 15.4322 22.0518 15.0224 22.0518H14.7483C14.4702 22.0518 14.2447 21.8249 14.2447 21.5468ZM25.6705 21.5468C25.6705 21.1283 25.1927 20.8866 24.858 21.1377L24.6549 21.2901C24.3179 21.5233 24.483 22.0518 24.8928 22.0518H25.1669C25.445 22.0518 25.6705 21.8249 25.6705 21.5468ZM14.9321 17.9468C14.655 17.7253 14.2447 17.9226 14.2447 18.2774V18.4547C14.2447 18.5634 14.2865 18.6679 14.3615 18.7466C14.6249 19.0232 15.0911 18.8368 15.0911 18.4547V18.2774C15.0911 18.1488 15.0326 18.0271 14.9321 17.9468ZM25.0677 17.9468C25.3448 17.7253 25.7551 17.9226 25.7551 18.2774V18.4547C25.7551 18.5634 25.7133 18.6679 25.6384 18.7466C25.3749 19.0232 24.9088 18.8368 24.9088 18.4547V18.2774C24.9088 18.1488 24.9673 18.0271 25.0677 17.9468Z" fill="#1572B6"/>
<path fill-rule="evenodd" clip-rule="evenodd" d="M14.8795 24.7176C14.4629 24.5656 13.8215 24.1675 13.8215 24.1675V25.7756C13.8215 25.7756 14.4498 26.1141 14.8795 26.1141C15.3092 26.1141 16.0221 25.7756 16.0221 25.7756V24.7599C16.0221 24.7599 15.2635 24.8577 14.8795 24.7176ZM25.1204 24.7176C25.5369 24.5656 26.1783 24.1675 26.1783 24.1675V25.7756C26.1783 25.7756 25.55 26.1141 25.1204 26.1141C24.6907 26.1141 23.9778 25.7756 23.9778 25.7756V24.7599C23.9778 24.7599 24.7363 24.8577 25.1204 24.7176Z" fill="#636363"/>
<path opacity="0.3" d="M20 14.1807L20 16.3812" stroke="black" stroke-width="0.5"/>
</g>
<defs>
<filter id="filter0_d_1828_14574" x="0" y="0" width="40" height="40" filterUnits="userSpaceOnUse" color-interpolation-filters="sRGB">
<feFlood flood-opacity="0" result="BackgroundImageFix"/>
<feColorMatrix in="SourceAlpha" type="matrix" values="0 0 0 0 0 0 0 0 0 0 0 0 0 0 0 0 0 0 127 0" result="hardAlpha"/>
<feOffset dy="4"/>
<feGaussianBlur stdDeviation="2"/>
<feComposite in2="hardAlpha" operator="out"/>
<feColorMatrix type="matrix" values="0 0 0 0 0 0 0 0 0 0 0 0 0 0 0 0 0 0 0.25 0"/>
<feBlend mode="normal" in2="BackgroundImageFix" result="effect1_dropShadow_1828_14574"/>
<feBlend mode="normal" in="SourceGraphic" in2="effect1_dropShadow_1828_14574" result="shape"/>
</filter>
</defs>
</svg>
