<svg width="50" height="50" viewBox="0 0 50 50" fill="none" xmlns="http://www.w3.org/2000/svg">
<path d="M24.2977 22.1818L20.8651 32H17.797L14.3644 22.1818H17.2409L19.2799 29.2067H19.3822L21.4149 22.1818H24.2977ZM25.6656 32V30.0057L30.3254 25.6911C30.7217 25.3075 31.0541 24.9624 31.3225 24.6555C31.5953 24.3487 31.8019 24.0483 31.9426 23.7543C32.0832 23.456 32.1535 23.1342 32.1535 22.7891C32.1535 22.4055 32.0661 22.0753 31.8914 21.7983C31.7167 21.517 31.4781 21.3018 31.1755 21.1527C30.873 20.9993 30.5299 20.9226 30.1464 20.9226C29.7458 20.9226 29.3964 21.0036 29.0981 21.1655C28.7998 21.3274 28.5697 21.5597 28.4078 21.8622C28.2458 22.1648 28.1649 22.5249 28.1649 22.9425H25.5377C25.5377 22.0859 25.7316 21.3423 26.1194 20.7116C26.5072 20.081 27.0505 19.593 27.7494 19.2479C28.4482 18.9027 29.2536 18.7301 30.1656 18.7301C31.1031 18.7301 31.9191 18.8963 32.6137 19.2287C33.3126 19.5568 33.8559 20.0128 34.2437 20.5966C34.6315 21.1804 34.8254 21.8494 34.8254 22.6037C34.8254 23.098 34.7274 23.5859 34.5313 24.0675C34.3396 24.549 33.9965 25.0838 33.5022 25.6719C33.0079 26.2557 32.3112 26.9567 31.412 27.7749L29.5008 29.6477V29.7372H34.998V32H25.6656Z" fill="white"/>
</svg>
