<svg width="101" height="100" viewBox="0 0 101 100" fill="none" xmlns="http://www.w3.org/2000/svg">
<g clip-path="url(#clip0_2054_299)">
<path d="M74.9688 3H25.0312C12.8637 3 3 12.8637 3 25.0312V74.9688C3 87.1363 12.8637 97 25.0312 97H74.9688C87.1363 97 97 87.1363 97 74.9688V25.0312C97 12.8637 87.1363 3 74.9688 3Z" fill="#4353FF"/>
<path d="M65.0932 40.9804C65.0932 40.9804 60.0205 56.873 59.6456 58.2224C59.4958 56.898 55.7975 28.3359 55.7975 28.3359C47.1514 28.3359 42.5534 34.483 40.1043 40.9804C40.1043 40.9804 33.9322 56.923 33.4325 58.2474C33.4075 56.9979 32.483 41.1302 32.483 41.1302C31.9579 33.1586 24.6861 28.3359 18.7891 28.3359L25.8861 71.5914C34.9317 71.5664 39.8047 65.4443 42.3533 58.9223C42.3533 58.9223 47.7759 44.8535 48.001 44.2289C48.051 44.8285 51.8991 71.5914 51.8991 71.5914C60.9701 71.5914 65.868 65.8691 68.4916 59.5968L81.2109 28.3359C72.2398 28.3359 67.517 34.4581 65.0932 40.9804Z" fill="white"/>
</g>
<defs>
<clipPath id="clip0_2054_299">
<rect width="94" height="94" fill="white" transform="translate(3 3)"/>
</clipPath>
</defs>
</svg>
