<svg width="96" height="98" viewBox="0 0 96 98" fill="none" xmlns="http://www.w3.org/2000/svg">
<g filter="url(#filter0_b_2184_15192)">
<path d="M72.0872 24.7759C68.9544 21.6125 65.2232 19.1042 61.1112 17.3972C56.9992 15.6902 52.5886 14.8187 48.1364 14.8334C29.4814 14.8334 14.2772 30.0376 14.2772 48.6926C14.2772 54.6718 15.8489 60.4801 18.7872 65.6051L14.0039 83.1668L31.9414 78.4518C36.8956 81.1509 42.4647 82.5859 48.1364 82.5859C66.7914 82.5859 81.9956 67.3818 81.9956 48.7268C81.9956 39.6726 78.4764 31.1651 72.0872 24.7759ZM48.1364 76.8459C43.0797 76.8459 38.1256 75.4793 33.7864 72.9168L32.7614 72.3018L22.1014 75.1034L24.9372 64.7168L24.2539 63.6576C21.4439 59.1717 19.9521 53.986 19.9489 48.6926C19.9489 33.1809 32.5906 20.5393 48.1022 20.5393C55.6189 20.5393 62.6914 23.4776 67.9872 28.8076C70.6099 31.4175 72.6883 34.5221 74.1018 37.9415C75.5153 41.3608 76.2357 45.0268 76.2214 48.7268C76.2897 64.2384 63.6481 76.8459 48.1364 76.8459ZM63.5797 55.7993C62.7256 55.3893 58.5572 53.3393 57.8056 53.0318C57.0197 52.7584 56.4731 52.6218 55.8922 53.4418C55.3114 54.2959 53.7056 56.2093 53.2272 56.7559C52.7489 57.3368 52.2364 57.4051 51.3822 56.9609C50.5281 56.5509 47.7947 55.6284 44.5831 52.7584C42.0547 50.5034 40.3806 47.7359 39.8681 46.8818C39.3897 46.0276 39.7997 45.5834 40.2439 45.1393C40.6197 44.7634 41.0981 44.1484 41.5081 43.6701C41.9181 43.1918 42.0889 42.8159 42.3622 42.2693C42.6356 41.6884 42.4989 41.2101 42.2939 40.8001C42.0889 40.3901 40.3806 36.2218 39.6972 34.5134C39.0139 32.8734 38.2964 33.0784 37.7839 33.0443H36.1439C35.5631 33.0443 34.6747 33.2493 33.8889 34.1034C33.1372 34.9576 30.9506 37.0076 30.9506 41.1759C30.9506 45.3443 33.9914 49.3759 34.4014 49.9226C34.8114 50.5034 40.3806 59.0451 48.8539 62.7009C50.8697 63.5893 52.4414 64.1018 53.6714 64.4776C55.6872 65.1268 57.5322 65.0243 59.0014 64.8193C60.6414 64.5801 64.0239 62.7693 64.7072 60.7876C65.4247 58.8059 65.4247 57.1318 65.1856 56.7559C64.9464 56.3801 64.4339 56.2093 63.5797 55.7993Z" fill="black"/>
</g>
<defs>
<filter id="filter0_b_2184_15192" x="-20" y="-20" width="136" height="138" filterUnits="userSpaceOnUse" color-interpolation-filters="sRGB">
<feFlood flood-opacity="0" result="BackgroundImageFix"/>
<feGaussianBlur in="BackgroundImageFix" stdDeviation="10"/>
<feComposite in2="SourceAlpha" operator="in" result="effect1_backgroundBlur_2184_15192"/>
<feBlend mode="normal" in="SourceGraphic" in2="effect1_backgroundBlur_2184_15192" result="shape"/>
</filter>
</defs>
</svg>
