<svg width="20" height="20" viewBox="0 0 20 20" fill="none" xmlns="http://www.w3.org/2000/svg">
<path d="M4.05016 9.94598C4.04983 10.994 4.32484 12.017 4.84769 12.9188L4 16L7.16739 15.1732C8.04011 15.6469 9.0227 15.8967 10.0225 15.8971H10.0251C13.318 15.8971 15.9986 13.2293 16 9.95074C16.0006 8.36186 15.3796 6.86776 14.2516 5.74381C13.1234 4.62 11.6234 4.00065 10.0251 4C6.73169 4 4.05152 6.66742 4.0502 9.94598H4.05016ZM5.93641 12.7635L5.81814 12.5766C5.32098 11.7896 5.05858 10.8802 5.05895 9.94636C5.06003 7.2213 7.28772 5.00425 10.027 5.00425C11.3536 5.00481 12.6002 5.51963 13.5379 6.45369C14.4756 7.38785 14.9915 8.62963 14.9912 9.95037C14.99 12.6754 12.7622 14.8928 10.0251 14.8928H10.0232C9.13192 14.8923 8.25784 14.654 7.49556 14.2037L7.31416 14.0966L5.43456 14.5872L5.93641 12.7634V12.7635Z" fill="url(#paint0_linear_2263_15314)"/>
<path d="M8.52542 7.27873C8.41482 7.0137 8.29843 7.00835 8.19326 7.0037C8.10714 6.99971 8.00869 7.00001 7.91034 7.00001C7.81189 7.00001 7.65193 7.03994 7.51672 7.19912C7.38138 7.35845 7 7.74347 7 8.52657C7 9.30972 7.52901 10.0665 7.60275 10.1728C7.67659 10.2789 8.624 11.9374 10.1245 12.5754C11.3715 13.1056 11.6253 13.0002 11.8959 12.9736C12.1666 12.9471 12.7694 12.5887 12.8923 12.217C13.0154 11.8453 13.0154 11.5268 12.9785 11.4602C12.9416 11.3939 12.8432 11.3541 12.6955 11.2745C12.5479 11.1949 11.8221 10.8098 11.6868 10.7567C11.5515 10.7036 11.453 10.6771 11.3546 10.8365C11.2561 10.9956 10.9735 11.3541 10.8873 11.4602C10.8012 11.5666 10.715 11.5799 10.5675 11.5002C10.4197 11.4204 9.94432 11.2525 9.38027 10.7103C8.94142 10.2884 8.64514 9.76737 8.55902 9.60799C8.4729 9.44886 8.5498 9.3626 8.62382 9.28329C8.69015 9.21197 8.77149 9.09742 8.84538 9.00451C8.91898 8.91155 8.94355 8.84523 8.99277 8.73908C9.04205 8.63283 9.01739 8.53987 8.98054 8.46025C8.94355 8.38064 8.65668 7.59349 8.52542 7.27878" fill="white"/>
<defs>
<linearGradient id="paint0_linear_2263_15314" x1="10" y1="16" x2="10" y2="4" gradientUnits="userSpaceOnUse">
<stop stop-color="#F9F9F9"/>
<stop offset="1" stop-color="white"/>
</linearGradient>
</defs>
</svg>
