<svg width="24" height="24" viewBox="0 0 24 24" fill="none" xmlns="http://www.w3.org/2000/svg">
<path d="M12 20C16.4183 20 20 16.4183 20 12C20 7.58172 16.4183 4 12 4C7.58172 4 4 7.58172 4 12C4 16.4183 7.58172 20 12 20Z" stroke="white"/>
<path d="M18.208 6.785C17.475 7.461 16.554 8.009 15.511 8.391C14.468 8.773 13.324 8.981 12.163 8.999C11.0169 9.01798 9.87547 8.84735 8.785 8.494C7.721 8.144 6.772 7.624 6.003 6.971M18.322 17.324C17.582 16.608 16.637 16.027 15.555 15.625C14.4412 15.216 13.2645 15.0045 12.078 15C10.8896 14.9884 9.70817 15.1826 8.586 15.574C7.494 15.96 6.533 16.527 5.775 17.231M12 4V20M20 12H4" stroke="white"/>
</svg>
